<svg xmlns="http://www.w3.org/2000/svg" width="319.014" height="370.507" viewBox="0 0 319.014 370.507">
  <g id="Group_295" data-name="Group 295" transform="translate(-548 -403.25)">
    <path id="path8741" d="M616.731,64.414A25.172,25.172,0,0,0,602.7,72.987L446.041,252.251l-56.117-56.117c-9.387-9.387-26.468-9.388-35.854,0s-9.387,26.468,0,35.854l74.823,74.823,19.485,18.706,17.147-20.265L640.114,105.722C654.266,90.316,637.224,60.21,616.731,64.414Z" transform="translate(200.97 339.234)" fill="#b42830"/>
    <path id="gui_action_select_icon_158547" d="M157.962,9.7A22.289,22.289,0,0,0,144.3,8.6a22.664,22.664,0,0,0-17.445,20.726,21.152,21.152,0,0,1,11.595-7.27,22.949,22.949,0,0,1,13.982,1.187c9.2,3.751,14.914,12.482,14.021,22.238a22.616,22.616,0,0,0-8.49-35.78Zm-7.1,134.221c-8.983,5.583-37.252,21.123-66.121,55.5-26.1-10.662-51.074-20.846-75.85-30.949,11.236-27.587,2.705-43.009,13.887-70.41,7.638-18.7,14.114-20.507,26.524-21.145L45.38,86.577c-2.385,5.817,6.411,9.363,8.756,3.578l3.519-8.6c2.853-7.024,12.023-5.231,20.047-5.278l-4.772,11.7c-2.36,5.791,6.4,9.389,8.77,3.578L85.831,81.4c2.932-7.177,12.488-5.1,20.579-4.965l-5.052,12.389c-2.385,5.844,6.424,9.362,8.77,3.593l20.511-50.188c6.371-15.607,30.549-6.358,23.964,9.789l-30.256,74.173A66.963,66.963,0,0,1,142.5,118.3C159.749,114.212,170.837,131.5,150.858,143.92Z" transform="matrix(0.695, -0.719, 0.719, 0.695, 604.072, 641.621)"/>
  </g>
</svg>
