<svg id="Concepts" xmlns="http://www.w3.org/2000/svg" width="80.901" height="51.86" viewBox="0 0 80.901 51.86">
  <g id="Mobile---04-Check-Out---Review-Copy">
    <g id="cards">
      <g id="visa">
        <rect id="Rectangle" width="80.901" height="51.86" rx="2" fill="#0e4595"/>
        <path id="Shape" d="M22.083,25.494l3.46-20.3h5.535l-3.463,20.3ZM47.609,5.627a14.3,14.3,0,0,0-4.96-.853c-5.469,0-9.321,2.754-9.353,6.7-.031,2.918,2.75,4.545,4.849,5.516,2.154,1,2.878,1.63,2.868,2.519-.014,1.361-1.72,1.983-3.311,1.983a11.6,11.6,0,0,1-5.209-1.066L31.78,20.1,31,24.65a17.522,17.522,0,0,0,6.165,1.083c5.818,0,9.594-2.722,9.637-6.937.021-2.31-1.454-4.067-4.647-5.517-1.935-.939-3.119-1.566-3.107-2.517,0-.844,1-1.747,3.169-1.747a10.213,10.213,0,0,1,4.142.778l.5.234.75-4.4Zm14.242-.438H57.575a2.753,2.753,0,0,0-2.9,1.684L46.457,25.48h5.811s.95-2.5,1.165-3.051l7.088.009c.165.711.673,3.043.673,3.043h5.136L61.851,5.189ZM55.066,18.3c.458-1.17,2.205-5.676,2.205-5.676-.033.054.454-1.176.734-1.938l.374,1.751s1.06,4.847,1.281,5.863ZM17.385,5.189,11.966,19.036l-.577-2.814A15.846,15.846,0,0,0,3.724,7.7L8.679,25.462l5.856-.007L23.247,5.189H17.385Z" transform="translate(8.328 10.676)" fill="#fff"/>
        <path id="Path" d="M10.924,4.9H2l-.071.422c6.943,1.681,11.537,5.742,13.444,10.622L13.433,6.617A2.317,2.317,0,0,0,10.924,4.9" transform="translate(4.314 10.962)" fill="#f2ae14"/>
      </g>
    </g>
  </g>
</svg>