<svg xmlns="http://www.w3.org/2000/svg" width="8.139" height="13.531" viewBox="0 0 8.139 13.531">
  <g id="maplocalization_89142" transform="translate(-102.027)">
    <g id="Group_85" data-name="Group 85" transform="translate(102.027)">
      <path id="Path_230" data-name="Path 230" d="M108.977,1.176a4.116,4.116,0,0,0-5.761,0,3.849,3.849,0,0,0-1.189,2.841,10.1,10.1,0,0,0,1.017,3.356q1.017,2.352,2.035,4.281T106.1,13.53q.159-.291.436-.793t.978-1.889q.7-1.387,1.229-2.55t.978-2.4a6.136,6.136,0,0,0,.449-1.876A3.849,3.849,0,0,0,108.977,1.176Zm-2.008,3.686a1.255,1.255,0,0,1-2.14-.885,1.165,1.165,0,0,1,.37-.872,1.277,1.277,0,0,1,1.771,0,1.165,1.165,0,0,1,.37.872A1.208,1.208,0,0,1,106.969,4.862Z" transform="translate(-102.027)" fill="#d63d4a"/>
    </g>
  </g>
</svg>
