<svg xmlns="http://www.w3.org/2000/svg" width="31.521" height="34.125" viewBox="0 0 31.521 34.125">
  <g id="Group_295" data-name="Group 295" transform="translate(-51.573 2.562)">
    <path id="Notifications_icon_copy" data-name="Notifications icon copy" d="M1721.544,77.91a.97.97,0,0,1,.126-1.384l.006-.005a1.032,1.032,0,0,1,1.427.13,2.71,2.71,0,0,0,.554.537,2.665,2.665,0,0,0,3.678-.537h.012a1.034,1.034,0,0,1,1.428-.13.969.969,0,0,1,.139,1.381l-.007.008a4.683,4.683,0,0,1-6.479.873,4.588,4.588,0,0,1-.89-.873Zm-2.173-3.613a6.448,6.448,0,0,1-4.067-2,5.24,5.24,0,0,1-1.282-3.56V68.58a5.4,5.4,0,0,1,.964-2.729l.1-.118a4.95,4.95,0,0,0,1.175-2.287V61.089a1.02,1.02,0,0,1,1.318-.551,1,1,0,0,1,.621.757v2.356a.563.563,0,0,1,0,.13,6.792,6.792,0,0,1-1.623,3.179,3.245,3.245,0,0,0-.517,1.624v.252a3.307,3.307,0,0,0,.775,2.229,4.433,4.433,0,0,0,2.75,1.282,54.075,54.075,0,0,0,11.375,0,4.44,4.44,0,0,0,2.808-1.339,3.266,3.266,0,0,0,.74-2.161v-.26a3.37,3.37,0,0,0-.5-1.635,6.806,6.806,0,0,1-1.722-3.179.746.746,0,0,1,0-.13v-2.37c-.34-3.453-3.878-5.588-6.957-5.588a7.744,7.744,0,0,0-3.737.949,1.037,1.037,0,0,1-1.029.006.969.969,0,0,1-.37-1.336.99.99,0,0,1,.419-.389,9.734,9.734,0,0,1,4.63-1.2c4.065,0,8.626,2.812,9.14,7.33V63.4a4.84,4.84,0,0,0,1.175,2.287,1.025,1.025,0,0,1,.094.13,5.2,5.2,0,0,1,.9,2.66l-.036.239a5.316,5.316,0,0,1-1.246,3.579,6.518,6.518,0,0,1-4.137,2,55.056,55.056,0,0,1-11.75,0Z" transform="translate(-1662.447 -48.143)" fill="#fff"/>
    <g id="Settings" transform="translate(-1709.996 -46.324)">
      <g id="Path_135" data-name="Path 135" transform="translate(1625.304 -43.539)" fill="#fff">
        <path d="M 156.1560974121094 102.9340972900391 C 154.3158416748047 102.9340972900391 152.7188110351562 101.6866226196289 152.2724151611328 99.90048217773438 C 152.0134887695312 98.86202239990234 152.1744995117188 97.78586578369141 152.7255706787109 96.86943817138672 C 153.2753448486328 95.95371246337891 154.1498718261719 95.30642700195312 155.1875152587891 95.04768371582031 C 155.5063018798828 94.96803283691406 155.8339538574219 94.92756652832031 156.1607055664062 94.92756652832031 C 156.8831634521484 94.92756652832031 157.5945281982422 95.12588500976562 158.2179107666016 95.50108337402344 C 159.1325836181641 96.05094909667969 159.7795867919922 96.92487335205078 160.0390625 97.96147918701172 C 160.5726318359375 100.1044464111328 159.2648315429688 102.2808227539062 157.1242218017578 102.8148193359375 C 156.8081512451172 102.8938827514648 156.4821014404297 102.9340972900391 156.1560974121094 102.9340972900391 Z M 156.1557922363281 98.72989654541016 C 156.1383972167969 98.72989654541016 156.1214141845703 98.73193359375 156.1053466796875 98.73595428466797 C 156.0575103759766 98.74789428710938 156.00927734375 98.78359222412109 155.9833526611328 98.82667541503906 C 155.9564819335938 98.87138366699219 155.9474029541016 98.93173217773438 155.9597625732422 98.98117828369141 C 155.9714813232422 99.02848815917969 156.0077819824219 99.07779693603516 156.0515441894531 99.10409545898438 C 156.0816955566406 99.1221923828125 156.1205444335938 99.13247680664062 156.1584625244141 99.13247680664062 C 156.1750030517578 99.13247680664062 156.1910705566406 99.13055419921875 156.2062225341797 99.12676239013672 C 156.2541809082031 99.11479949951172 156.3026123046875 99.07898712158203 156.3285827636719 99.03577423095703 C 156.3554992675781 98.99087524414062 156.3641815185547 98.93101501464844 156.351806640625 98.88147735595703 C 156.3330230712891 98.80622863769531 156.2650451660156 98.72989654541016 156.1557922363281 98.72989654541016 Z" stroke="none"/>
        <path d="M 156.1607055664062 96.42756652832031 C 155.95751953125 96.42755889892578 155.7529144287109 96.45252990722656 155.5504302978516 96.50311279296875 C 154.9019165039062 96.66482543945312 154.3550872802734 97.06940460205078 154.0110626220703 97.64242553710938 C 153.6664733886719 98.21546936035156 153.5659332275391 98.88819885253906 153.7276458740234 99.53677368164062 C 154.0621337890625 100.8750762939453 155.42041015625 101.6948699951172 156.7611541748047 101.3594131469727 C 158.1000366210938 101.0254287719727 158.9173431396484 99.66468811035156 158.5839538574219 98.32571411132812 C 158.4216003417969 97.67709350585938 158.0170135498047 97.1304931640625 157.4444122314453 96.78626251220703 C 157.0509643554688 96.54946136474609 156.6095123291016 96.42758941650391 156.1607055664062 96.42756652832031 M 156.1557922363281 100.2298965454102 C 155.57470703125 100.2298965454102 155.0438079833984 99.83488464355469 154.8965759277344 99.24522399902344 C 154.8125 98.90885925292969 154.8648834228516 98.56014251708984 155.0430450439453 98.26287841796875 C 155.2217407226562 97.96566772460938 155.5051574707031 97.75569915771484 155.8421173095703 97.67162322998047 C 156.1775360107422 97.58772277832031 156.526611328125 97.63969421386719 156.8240814208984 97.81832885742188 C 157.1215972900391 97.99708557128906 157.3315277099609 98.28082275390625 157.4149932861328 98.61746215820312 C 157.4990539550781 98.95379638671875 157.447265625 99.30277252197266 157.2685852050781 99.60009765625 C 157.0898742675781 99.89706420898438 156.8064575195312 100.1069793701172 156.4694976806641 100.1910858154297 C 156.3646087646484 100.2173385620117 156.2593841552734 100.2298965454102 156.1557922363281 100.2298965454102 M 156.1605834960938 93.42756652832031 L 156.1608428955078 93.42756652832031 C 157.1558074951172 93.42760467529297 158.1346130371094 93.70021820068359 158.9914245605469 94.21590423583984 C 160.2482604980469 94.97146606445312 161.1375579833984 96.17259216308594 161.4941711425781 97.59724426269531 C 162.2279357910156 100.5442886352539 160.4300384521484 103.5361251831055 157.4872741699219 104.2702178955078 C 157.0532379150391 104.3787994384766 156.6047058105469 104.4340972900391 156.1560974121094 104.4340972900391 C 153.6262359619141 104.4340972900391 151.4308013916016 102.719367980957 150.8171691894531 100.2641830444336 C 150.4610595703125 98.83599853515625 150.6824188232422 97.35643768310547 151.4400787353516 96.09644317626953 C 152.1956634521484 94.83794403076172 153.3980102539062 93.94797515869141 154.8245849609375 93.59224700927734 C 155.2615203857422 93.48308563232422 155.7114562988281 93.42756652832031 156.1605834960938 93.42756652832031 Z" stroke="none" fill="#d63d4a"/>
      </g>
      <g id="Path_136" data-name="Path 136" transform="translate(1659.882 -8.963)" fill="#fff">
        <path d="M 123.2596130371094 74.48738861083984 C 122.6511993408203 74.48738861083984 122.0525283813477 74.32081604003906 121.5283279418945 74.00568389892578 C 121.0165328979492 73.69851684570312 120.6043930053711 73.27106475830078 120.3214797973633 72.76305389404297 C 119.9025955200195 73.16653442382812 119.3843383789062 73.45503997802734 118.8061447143555 73.59943389892578 C 118.5376892089844 73.66645812988281 118.2624588012695 73.70041656494141 117.9879531860352 73.70041656494141 C 117.3796463012695 73.70041656494141 116.7797927856445 73.53309631347656 116.2532653808594 73.21653747558594 C 115.4830474853516 72.75392913818359 114.9383773803711 72.01844787597656 114.7201538085938 71.14590454101562 C 114.5755386352539 70.56499481201172 114.5865859985352 69.97053527832031 114.7458801269531 69.41104125976562 C 113.2260513305664 69.37960815429688 111.916877746582 68.33830261230469 111.5476150512695 66.85711669921875 C 111.3301544189453 65.98333740234375 111.4654159545898 65.07802581787109 111.9283065795898 64.30735778808594 C 112.2356491088867 63.7952995300293 112.6632690429688 63.38303756713867 113.1714172363281 63.1000862121582 C 112.7679443359375 62.68120956420898 112.4794921875 62.16294479370117 112.3350982666016 61.58468627929688 C 112.1167373657227 60.71283721923828 112.2521743774414 59.80609893798828 112.7167129516602 59.03251647949219 C 113.1799697875977 58.26126861572266 113.9158096313477 57.71653747558594 114.7887573242188 57.49853897094727 C 115.0561065673828 57.43129730224609 115.3328857421875 57.39690780639648 115.6090240478516 57.39690780639648 C 115.9185256958008 57.39690780639648 116.2256927490234 57.44022369384766 116.5219955444336 57.52447128295898 C 116.5334167480469 56.9433479309082 116.6969680786133 56.37172317504883 117.0054397583008 55.85908889770508 C 117.469352722168 55.08810806274414 118.2050170898438 54.54372787475586 119.0768737792969 54.32624816894531 C 119.3436126708984 54.25943756103516 119.6190032958984 54.22538757324219 119.8940048217773 54.22538757324219 C 121.1382598876953 54.22538757324219 122.2502365112305 54.90351486206055 122.8334655761719 55.94991683959961 C 123.2527160644531 55.5460205078125 123.7710037231445 55.25756072998047 124.3491058349609 55.11318588256836 C 124.6169357299805 55.04605865478516 124.8928833007812 55.01185607910156 125.1680526733398 55.01185607910156 C 125.7761688232422 55.01185607910156 126.3759994506836 55.17946624755859 126.902717590332 55.49655532836914 C 127.6719436645508 55.95833587646484 128.2167205810547 56.69381713867188 128.4351043701172 57.56655883789062 C 128.5797729492188 58.14783477783203 128.5686950683594 58.74242782592773 128.4092559814453 59.30204772949219 C 129.9292602539062 59.33347702026367 131.2385559082031 60.37462615966797 131.607666015625 61.85559844970703 C 131.9831848144531 63.36119079589844 131.2766571044922 64.88812255859375 129.9831237792969 65.61177062988281 C 130.386962890625 66.03074645996094 130.6756591796875 66.54928588867188 130.8201293945312 67.12790679931641 C 131.0386505126953 68.00075531005859 130.9024200439453 68.90818786621094 130.4363098144531 69.68209838867188 C 129.9749145507812 70.45082855224609 129.2396545410156 70.99551391601562 128.3671417236328 71.21384429931641 C 128.0955505371094 71.28120422363281 127.8202819824219 71.31497955322266 127.5459518432617 71.31497955322266 C 127.5458984375 71.31497955322266 127.5458755493164 71.31497955322266 127.5458297729492 71.31497955322266 C 127.2361907958984 71.31497192382812 126.9292221069336 71.27186584472656 126.6333694458008 71.18800354003906 C 126.6227188110352 71.77021026611328 126.4601593017578 72.34110260009766 126.1531143188477 72.85231781005859 C 125.6908950805664 73.62307739257812 124.953742980957 74.16820526123047 124.0779800415039 74.38641357421875 C 123.8087692260742 74.45343780517578 123.5335159301758 74.48738861083984 123.2596130371094 74.48738861083984 Z M 121.8501281738281 68.58428955078125 C 122.14111328125 68.58428955078125 122.4205932617188 68.64373779296875 122.6754989624023 68.75244140625 C 122.8680038452148 68.51318359375 123.1145248413086 68.31379699707031 123.4049530029297 68.17548370361328 C 123.893684387207 67.94257354736328 124.3279190063477 67.62100982666016 124.695182800293 67.21989440917969 C 124.9100875854492 66.98611450195312 125.1728591918945 66.80634307861328 125.4612350463867 66.69015502929688 C 125.4280014038086 66.38431549072266 125.4613647460938 66.06817626953125 125.5693359375 65.76416015625 C 125.7509765625 65.25304412841797 125.830940246582 64.71887969970703 125.8071060180664 64.17620086669922 C 125.7924728393555 63.85398864746094 125.8529815673828 63.54190063476562 125.9744567871094 63.25899124145508 C 125.73388671875 63.06509017944336 125.5345916748047 62.81784057617188 125.3974151611328 62.53041839599609 C 125.16357421875 62.04044723510742 124.8415451049805 61.60565567016602 124.4402770996094 61.23811721801758 C 124.2030868530273 61.02081680297852 124.0258102416992 60.75822448730469 123.9117279052734 60.47341156005859 C 123.8378524780273 60.4814453125 123.7633056640625 60.48553848266602 123.6882553100586 60.48553848266602 C 123.4473266601562 60.48553848266602 123.2099685668945 60.44440841674805 122.9827651977539 60.36328887939453 C 122.5324935913086 60.20351791381836 122.0625762939453 60.12201690673828 121.5888137817383 60.12201690673828 C 121.5260162353516 60.12201690673828 121.4622039794922 60.12345886230469 121.3991775512695 60.12629699707031 L 121.3832397460938 60.12701797485352 L 121.3672866821289 60.12739562988281 C 121.3503646850586 60.1278076171875 121.3334732055664 60.12800598144531 121.3166198730469 60.12800598144531 C 121.022087097168 60.12800598144531 120.739387512207 60.06803894042969 120.4819412231445 59.95846939086914 C 120.2891311645508 60.19824600219727 120.0418930053711 60.39833068847656 119.7502746582031 60.53720855712891 C 119.2615356445312 60.77011871337891 118.8273086547852 61.0916862487793 118.4599838256836 61.49284744262695 C 118.2459564208984 61.72674179077148 117.983024597168 61.90692520141602 117.693977355957 62.02332305908203 C 117.7271423339844 62.32883834838867 117.6938858032227 62.64456558227539 117.5862350463867 62.94827651977539 C 117.4042053222656 63.46011734008789 117.3242797851562 63.99393844604492 117.3481292724609 64.53640747070312 C 117.3627090454102 64.85847473144531 117.3021697998047 65.17050933837891 117.1807174682617 65.45336151123047 C 117.4219284057617 65.64771270751953 117.6215286254883 65.89566802978516 117.7586898803711 66.18407440185547 C 117.9916458129883 66.67225646972656 118.3136367797852 67.10700988769531 118.7148590087891 67.47444915771484 C 118.9520492553711 67.69185638427734 119.1293716430664 67.95461273193359 119.2434463500977 68.23945617675781 C 119.3172988891602 68.2314453125 119.3918609619141 68.22736358642578 119.4669036865234 68.22736358642578 C 119.7070541381836 68.22736358642578 119.9436340332031 68.26819610595703 120.1700592041016 68.34870910644531 C 120.6228942871094 68.50911712646484 121.0932388305664 68.59076690673828 121.5662460327148 68.59076690673828 C 121.6289443969727 68.59076690673828 121.6925735473633 68.58931732177734 121.7553787231445 68.58645629882812 L 121.7630844116211 68.58609771728516 L 121.7707977294922 68.58583068847656 C 121.7971496582031 68.58489990234375 121.8237762451172 68.58428955078125 121.8501281738281 68.58428955078125 Z" stroke="none"/>
        <path d="M 123.2596130371094 72.98738861083984 C 123.4112930297852 72.98738861083984 123.5641632080078 72.96854400634766 123.7153167724609 72.93091583251953 C 124.2015838623047 72.80975341796875 124.6108245849609 72.50754547119141 124.8672180175781 72.08000946044922 C 125.1236267089844 71.65308380126953 125.1976470947266 71.15118408203125 125.0771026611328 70.66724395751953 L 125.0071334838867 70.38796997070312 C 125.4910583496094 70.11362457275391 125.9373474121094 69.78286743164062 126.3419036865234 69.3997802734375 L 126.5894470214844 69.54851531982422 C 127.0163269042969 69.80522155761719 127.5179061889648 69.87901306152344 128.0030212402344 69.75872039794922 C 128.4869384765625 69.63762664794922 128.8949737548828 69.33536529541016 129.1513671875 68.90818786621094 C 129.4101104736328 68.47859954833984 129.4859619140625 67.9752197265625 129.3648071289062 67.49126434326172 C 129.2442779541016 67.00851440429688 128.9420776367188 66.60099029541016 128.5139770507812 66.34375 L 128.2670440673828 66.195556640625 C 128.4157409667969 65.65896606445312 128.4981384277344 65.10969543457031 128.5128326416016 64.55342864990234 L 128.7927398681641 64.48375701904297 C 129.7917633056641 64.234130859375 130.4015197753906 63.21797561645508 130.1521911621094 62.21835708618164 C 129.9028930664062 61.21811294555664 128.8863067626953 60.60834884643555 127.8878173828125 60.85676574707031 L 127.6090927124023 60.92643737792969 C 127.3345031738281 60.44248580932617 127.0040588378906 59.99617767333984 126.6206665039062 59.59158706665039 L 126.7694396972656 59.34428787231445 C 127.0257797241211 58.9171257019043 127.1004943847656 58.4149284362793 126.9799652099609 57.93066787719727 C 126.8587951660156 57.44642639160156 126.5565490722656 57.03827667236328 126.1290740966797 56.78165817260742 C 125.6992568969727 56.52290344238281 125.1983108520508 56.44674682617188 124.7125549316406 56.56848526000977 C 124.2298583984375 56.68903732299805 123.8223495483398 56.99124526977539 123.5648040771484 57.41908645629883 L 123.4165954589844 57.66630554199219 C 122.8797302246094 57.51811599731445 122.3305435180664 57.43580627441406 121.7748794555664 57.42051696777344 L 121.7048797607422 57.1406364440918 C 121.4556274414062 56.14245223999023 120.4412689208984 55.53084945678711 119.4399261474609 55.78164672851562 C 118.4403686523438 56.03098678588867 117.8287734985352 57.04651641845703 118.0781326293945 58.04559707641602 L 118.1474990844727 58.32494735717773 C 117.6641693115234 58.59922790527344 117.2178649902344 58.92974853515625 116.8133239746094 59.31283569335938 L 116.5663452148438 59.16464614868164 C 116.1388931274414 58.90765380859375 115.637336730957 58.83183288574219 115.1521987915039 58.95383834838867 C 114.6682891845703 59.07468795776367 114.2596435546875 59.37690734863281 114.0026626586914 59.80473709106445 C 113.7445297241211 60.2346076965332 113.6692733764648 60.73764801025391 113.7904052734375 61.22128677368164 C 113.9109649658203 61.70409774780273 114.2131500244141 62.11157608032227 114.6412658691406 62.36887741088867 L 114.8881988525391 62.5170783996582 C 114.7394790649414 63.05364608764648 114.6570892333984 63.60317611694336 114.6424026489258 64.15913391113281 L 114.3625640869141 64.22909545898438 C 113.8792495727539 64.34965515136719 113.4711151123047 64.65162658691406 113.2141876220703 65.07969665527344 C 112.9572143554688 65.50753021240234 112.8825531005859 66.01004028320312 113.0030670166016 66.49427795410156 C 113.2523422241211 67.49420928955078 114.2696533203125 68.10521697998047 115.2674331665039 67.85617065429688 L 115.5467834472656 67.7864990234375 C 115.8207931518555 68.27013397216797 116.1512298583984 68.71645355224609 116.5346298217773 69.12104034423828 L 116.3858337402344 69.3682861328125 C 116.129508972168 69.79550933837891 116.0547790527344 70.29770660400391 116.1753387451172 70.78196716308594 C 116.2964477539062 71.26622009277344 116.5987396240234 71.67427062988281 117.0261688232422 71.93098449707031 C 117.4560317993164 72.18943786621094 117.9576110839844 72.26523590087891 118.4427032470703 72.14413452148438 C 118.9254150390625 72.02359008789062 119.3329391479492 71.7213134765625 119.5904693603516 71.29293823242188 L 119.7386627197266 71.04623413085938 C 120.2754974365234 71.19443511962891 120.8246765136719 71.27674865722656 121.3809051513672 71.29203796386719 L 121.4503326416016 71.57138061523438 C 121.5708770751953 72.05532836914062 121.8730697631836 72.46316528320312 122.3011779785156 72.72010803222656 C 122.5951385498047 72.89682769775391 122.9250335693359 72.98738861083984 123.2596130371094 72.98738861083984 M 121.8501281738281 70.08428955078125 C 121.8413391113281 70.08428955078125 121.8324584960938 70.08458709716797 121.8236694335938 70.08489990234375 C 121.0892639160156 70.11833190917969 120.3630676269531 70.00840759277344 119.6674652099609 69.76200866699219 C 119.3987426757812 69.66645050048828 119.0976715087891 69.77381134033203 118.9501190185547 70.01984405517578 L 118.5579376220703 70.67321014404297 C 118.4667892456055 70.82547760009766 118.3221282958984 70.93307495117188 118.1510391235352 70.9757080078125 C 117.9805068969727 71.019287109375 117.8011474609375 70.99130249023438 117.6465301513672 70.89868927001953 C 117.4942398071289 70.80729675292969 117.3871994018555 70.66227722167969 117.3437347412109 70.49002075195312 C 117.3007736206055 70.31804656982422 117.3272094726562 70.13986968994141 117.4183502197266 69.98841857910156 L 117.8111267089844 69.33478546142578 C 117.9587097167969 69.08928680419922 117.9128799438477 68.77412414550781 117.7017974853516 68.58065795898438 C 117.1573181152344 68.08202362060547 116.7210235595703 67.49250793457031 116.404052734375 66.82826995849609 C 116.2811584472656 66.56981658935547 115.9959869384766 66.43436431884766 115.7149658203125 66.50310516357422 L 114.9763793945312 66.68779754638672 C 114.6123657226562 66.77776336669922 114.261360168457 66.56400299072266 114.1720199584961 66.20264434814453 C 114.1284790039062 66.03035736083984 114.1555328369141 65.85158538818359 114.2466888427734 65.69955444335938 C 114.3378601074219 65.54756927490234 114.4824829101562 65.44054412841797 114.6542053222656 65.39762878417969 L 115.3938751220703 65.21293640136719 C 115.6714172363281 65.14356994628906 115.8625183105469 64.88807678222656 115.8495788574219 64.60231018066406 C 115.8172302246094 63.86665725708008 115.9254455566406 63.14159774780273 116.1724243164062 62.44714736938477 C 116.2682189941406 62.17689895629883 116.1606292724609 61.87671661376953 115.9148559570312 61.7291374206543 L 115.2610092163086 61.33629608154297 C 115.1086730957031 61.24488830566406 115.0010833740234 61.10024642944336 114.9581527709961 60.92911529541016 C 114.9152679443359 60.75768661499023 114.9429168701172 60.57861709594727 115.0352172851562 60.42518615722656 C 115.1263198852539 60.2728385925293 115.2716293334961 60.16522598266602 115.4444732666016 60.12229537963867 C 115.6167526245117 60.07910537719727 115.7948989868164 60.10645294189453 115.9460144042969 60.19701766967773 L 116.5998687744141 60.58949661254883 C 116.8456649780273 60.73739242553711 117.1602401733398 60.6912841796875 117.3536987304688 60.47986602783203 C 117.8523101806641 59.93532562255859 118.4420776367188 59.49900817871094 119.105339050293 59.18293762207031 C 119.3640594482422 59.05972671508789 119.50048828125 58.77130889892578 119.4305267333984 58.49347686767578 L 119.2464599609375 57.75427627563477 C 119.1576843261719 57.39966583251953 119.3758544921875 57.03891754150391 119.7315979003906 56.95016860961914 C 120.0867156982422 56.8607177734375 120.4483337402344 57.07806777954102 120.5365447998047 57.43230819702148 L 120.7206192016602 58.17180633544922 C 120.7899627685547 58.44964218139648 121.0492095947266 58.63452911376953 121.3315277099609 58.62782669067383 C 122.0682983398438 58.59456253051758 122.792724609375 58.70423126220703 123.4871368408203 58.95062637329102 C 123.7564697265625 59.04678344726562 124.0563354492188 58.93888092041016 124.2045135498047 58.69338607788086 L 124.5972747802734 58.03944778442383 C 124.6884155273438 57.88716888427734 124.8330383300781 57.77955627441406 125.0041656494141 57.7369270324707 C 125.1758651733398 57.69430541992188 125.3552017211914 57.72163391113281 125.5086975097656 57.81394577026367 C 125.6609649658203 57.90542602539062 125.7680053710938 58.05034637451172 125.8114700317383 58.22262573242188 C 125.8544235229492 58.39465713500977 125.8279800415039 58.57283782958984 125.7368392944336 58.72426605224609 L 125.3440628051758 59.37784576416016 C 125.1964874267578 59.62332534790039 125.2423095703125 59.93856811523438 125.4534149169922 60.13197708129883 C 125.9979095458984 60.63068771362305 126.4341888427734 61.22019577026367 126.7511596679688 61.88435745239258 C 126.874641418457 62.14310836791992 127.1615524291992 62.27865219116211 127.4402465820312 62.20953750610352 L 128.179443359375 62.02522659301758 C 128.5404510498047 61.93668365478516 128.8932189941406 62.14780807495117 128.9831695556641 62.51006698608398 C 129.0719757080078 62.86551666259766 128.8556213378906 63.22685623168945 128.5010223388672 63.31536865234375 L 127.7612991333008 63.49970626831055 C 127.4838027954102 63.5688362121582 127.2926788330078 63.82433700561523 127.3056640625 64.11039733886719 C 127.3379669189453 64.84603881835938 127.2297668457031 65.57133483886719 126.9828491210938 66.26615905761719 C 126.8869934082031 66.53604888916016 126.9945678710938 66.83621978759766 127.2403793334961 66.98381042480469 L 127.8942031860352 67.37635803222656 C 128.0465240478516 67.46781921386719 128.1541290283203 67.61245727539062 128.1964569091797 67.78326416015625 C 128.2393798828125 67.95472717285156 128.2123107910156 68.13375091552734 128.119384765625 68.28783416748047 C 128.0283050537109 68.43980407714844 127.8830795288086 68.54740905761719 127.7107238769531 68.59037017822266 C 127.5378646850586 68.63388061523438 127.3608932495117 68.60738372802734 127.2091674804688 68.51599884033203 L 126.5553283691406 68.12314605712891 C 126.3107070922852 67.97647857666016 125.9955673217773 68.02173614501953 125.8014831542969 68.23285675048828 C 125.3029098510742 68.77737426757812 124.7131042480469 69.21369934082031 124.0498733520508 69.52976989746094 C 123.7911682128906 69.65296936035156 123.6553344726562 69.94109344482422 123.7240753173828 70.21892547607422 L 123.9087371826172 70.95866394042969 C 123.9516830444336 71.13125610351562 123.9251861572266 71.30917358398438 123.8346099853516 71.46027374267578 C 123.7435455322266 71.61170959472656 123.5976791381836 71.718994140625 123.4236450195312 71.76255798339844 C 123.2524642944336 71.80607604980469 123.0731811523438 71.77898406982422 122.9209289550781 71.68757629394531 C 122.7691955566406 71.59640502929688 122.6615829467773 71.45178985595703 122.6186599731445 71.28003692626953 L 122.4345932006836 70.54059600830078 C 122.3669738769531 70.27156066894531 122.1253433227539 70.08428955078125 121.8501281738281 70.08428955078125 M 123.2596130371094 75.98738861083984 C 122.3789367675781 75.98738861083984 121.5130157470703 75.74666595458984 120.7554779052734 75.291259765625 C 120.4930725097656 75.13376617431641 120.2487945556641 74.95436859130859 120.0245208740234 74.75559234619141 C 119.7521514892578 74.88030242919922 119.4663696289062 74.98062896728516 119.1695861816406 75.05474853515625 C 118.7823257446289 75.15142822265625 118.3848495483398 75.20041656494141 117.9879531860352 75.20041656494141 C 117.1073455810547 75.20041656494141 116.240234375 74.95893859863281 115.480354309082 74.50206756591797 C 114.3675155639648 73.83368682861328 113.5803375244141 72.77077484130859 113.2649765014648 71.50984954833984 C 113.1907196044922 71.21157836914062 113.1448440551758 70.91084289550781 113.1268692016602 70.61084747314453 C 111.6496200561523 70.06544494628906 110.4911346435547 68.82036590576172 110.092155456543 67.21994781494141 C 109.7778778076172 65.95711517333984 109.9734039306641 64.64885711669922 110.6424255371094 63.53500747680664 C 110.8001861572266 63.27217102050781 110.9798202514648 63.02759552001953 111.1788940429688 62.80303955078125 C 111.0542144775391 62.53068923950195 110.9538803100586 62.2448616027832 110.8797760009766 61.94808578491211 C 110.5642242431641 60.68816757202148 110.7597198486328 59.37775802612305 111.4307632446289 58.26028823852539 C 112.1003494262695 57.14554595947266 113.1637649536133 56.3582878112793 114.4253082275391 56.04322814941406 C 114.718505859375 55.96950531005859 115.0205612182617 55.92314529418945 115.3245010375977 55.90527725219727 C 115.4295883178711 55.62346267700195 115.5616455078125 55.34915924072266 115.7201766967773 55.08570861816406 C 116.3904647827148 53.97178649902344 117.4536285400391 53.18519592285156 118.7138290405273 52.87084579467773 C 119.098258972168 52.77455902099609 119.4962539672852 52.72538757324219 119.8940048217773 52.72538757324219 C 121.1237335205078 52.72538757324219 122.2639770507812 53.18342590332031 123.1317520141602 53.9565544128418 C 123.4037933349609 53.83208847045898 123.6892852783203 53.73190307617188 123.9856567382812 53.65788650512695 C 124.3713226318359 53.56120681762695 124.7700042724609 53.51185607910156 125.1680526733398 53.51185607910156 C 126.0487442016602 53.51185607910156 126.9161071777344 53.75377655029297 127.6763687133789 54.21146774291992 C 128.7872924804688 54.87837600708008 129.5746612548828 55.94126892089844 129.8902435302734 57.20243835449219 C 129.9645538330078 57.50099563598633 130.0104370117188 57.80196380615234 130.0283966064453 58.10218811035156 C 131.5057220458984 58.64754486083984 132.6642761230469 59.89253997802734 133.0631408691406 61.49281692504883 C 133.4665222167969 63.110107421875 133.0058288574219 64.74458312988281 131.9749908447266 65.90658569335938 C 132.1003112792969 66.17984771728516 132.2010803222656 66.4666748046875 132.2754516601562 66.76455688476562 C 132.5913391113281 68.0262451171875 132.3946838378906 69.33789825439453 131.7212371826172 70.45600891113281 C 131.0549621582031 71.56611633300781 129.9922637939453 72.35344696044922 128.7312622070312 72.66898345947266 L 128.7252197265625 72.67049407958984 C 128.4320526123047 72.74320983886719 128.1330413818359 72.78873443603516 127.8329467773438 72.80648040771484 C 127.7283782958984 73.08798217773438 127.5968933105469 73.36176300048828 127.4390029907227 73.6246337890625 C 126.7709579467773 74.73863983154297 125.7057495117188 75.52669525146484 124.4406280517578 75.8419189453125 C 124.0527191162109 75.93848419189453 123.6555557250977 75.98738861083984 123.2596130371094 75.98738861083984 Z M 121.8501281738281 67.08428955078125 C 121.9899368286133 67.08428955078125 122.1282348632812 67.09230041503906 122.2644577026367 67.10793304443359 C 122.4198608398438 67.00052642822266 122.585334777832 66.90440368652344 122.7600326538086 66.82120513916016 C 123.0733871459961 66.671875 123.3525161743164 66.46508026123047 123.5888900756836 66.20692443847656 L 123.5928344726562 66.20261383056641 C 123.7214050292969 66.06275177001953 123.8601608276367 65.93418884277344 124.0074996948242 65.81758880615234 C 124.0415496826172 65.63100433349609 124.0907897949219 65.44530487060547 124.1558380126953 65.26215362548828 C 124.2725448608398 64.93372344970703 124.3238677978516 64.59069061279297 124.3085556030273 64.24199676513672 C 124.2997512817383 64.04815673828125 124.3068313598633 63.85646057128906 124.3287353515625 63.66828536987305 C 124.2216186523438 63.51343536376953 124.1261291503906 63.34923553466797 124.0436782836914 63.17645645141602 C 123.8931732177734 62.86112594604492 123.6857376098633 62.58111572265625 123.4271392822266 62.34425735473633 C 123.2849197387695 62.21396636962891 123.1552047729492 62.07407760620117 123.0383605957031 61.92645645141602 C 122.8505172729492 61.89193344116211 122.6653442382812 61.84235763549805 122.4839248657227 61.77791595458984 L 122.4839248657227 61.77791595458984 C 122.1534194946289 61.66064071655273 121.8104934692383 61.60926055908203 121.4668426513672 61.62477874755859 L 121.4037933349609 61.62695693969727 C 121.231071472168 61.63111114501953 121.0603332519531 61.62298583984375 120.8928375244141 61.6035041809082 C 120.7368545532227 61.71137237548828 120.5707244873047 61.80789947509766 120.3952255249023 61.89147567749023 C 120.0818176269531 62.04082870483398 119.8026885986328 62.24763870239258 119.566276550293 62.50582885742188 C 119.4366836547852 62.6474494934082 119.2965698242188 62.77761459350586 119.1477508544922 62.89548873901367 C 119.1138305664062 63.08152389526367 119.0647811889648 63.26678085327148 119.0000534057617 63.44939804077148 C 118.8826065063477 63.77964782714844 118.8313674926758 64.12218475341797 118.8466796875 64.47050476074219 C 118.8554458618164 64.66423797607422 118.8483428955078 64.85597991943359 118.8264389038086 65.04405975341797 C 118.934326171875 65.2000732421875 119.0304565429688 65.36563873291016 119.1133041381836 65.53985595703125 C 119.2620544433594 65.85158538818359 119.4694137573242 66.13150024414062 119.727912902832 66.36822509765625 C 119.8702163696289 66.4986572265625 120 66.63867950439453 120.1168975830078 66.78643798828125 C 120.3052520751953 66.821044921875 120.4909286499023 66.87078857421875 120.6727752685547 66.93547058105469 C 121.0009078979492 67.05169677734375 121.3451080322266 67.10353088378906 121.6869354248047 67.08802032470703 L 121.7179260253906 67.08675384521484 C 121.761848449707 67.08522033691406 121.8062133789062 67.08428955078125 121.8501281738281 67.08428955078125 Z" stroke="none" fill="#d63d4a"/>
      </g>
    </g>
  </g>
</svg>