<svg xmlns="http://www.w3.org/2000/svg" width="21.333" height="42.026" viewBox="0 0 21.333 42.026">
  <g id="_4023885-battery-electric-energy-storage_112862" data-name="4023885-battery-electric-energy-storage_112862" transform="translate(-143.392 -33.808)">
    <g id="Group_60" data-name="Group 60" transform="translate(143.392 33.808)">
      <g id="Group_58" data-name="Group 58" transform="translate(0 4.723)">
        <path id="Path_138" data-name="Path 138" d="M161.726,83.675h.2c.043,0,.085,0,.127.006a2.74,2.74,0,0,1,1.824.838,2.789,2.789,0,0,1,.849,2.039v31.526q0,.067-.006.132a2.773,2.773,0,0,1-.843,1.907,2.744,2.744,0,0,1-1.9.849c-.042,0-.084.005-.127.006H146.258c-.039,0-.077,0-.116-.006a2.895,2.895,0,0,1-2.751-2.888V86.558a2.783,2.783,0,0,1,.843-2.039,2.746,2.746,0,0,1,2.023-.843v.006l15.269-.006ZM151.214,114.4v1.962h5.694V114.4Zm-1.891-10.439h3.743l-1.7,5.9a.515.515,0,0,0,.259.6.494.494,0,0,0,.342.05.51.51,0,0,0,.3-.182l6.94-8.664a.49.49,0,0,0,.1-.358.5.5,0,0,0-.16-.342.507.507,0,0,0-.353-.143h-3.743l1.7-5.892a.535.535,0,0,0-.022-.358.49.49,0,0,0-.237-.248.506.506,0,0,0-.347-.044.523.523,0,0,0-.3.182l-6.929,8.664a.485.485,0,0,0-.116.353.524.524,0,0,0,.171.347A.5.5,0,0,0,149.323,103.958ZM155.039,88.3V86.431h-1.957V88.3h-1.869v1.962h1.869V92.13h1.957V90.261h1.869V88.3Z" transform="translate(-143.392 -83.675)" fill="#52c622" fill-rule="evenodd"/>
      </g>
      <g id="Group_59" data-name="Group 59" transform="translate(5.645)">
        <rect id="Rectangle_53" data-name="Rectangle 53" width="10.098" height="3.098" fill="#52c622"/>
      </g>
    </g>
  </g>
</svg>