<svg xmlns="http://www.w3.org/2000/svg" width="12.782" height="25.181" viewBox="0 0 12.782 25.181">
  <g id="_4023885-battery-electric-energy-storage_112862" data-name="4023885-battery-electric-energy-storage_112862" transform="translate(-143.392 -33.808)">
    <g id="Group_65" data-name="Group 65" transform="translate(143.392 33.808)">
      <g id="Group_63" data-name="Group 63" transform="translate(0 2.83)">
        <path id="Path_178" data-name="Path 178" d="M154.377,83.675h.119l.076,0a1.642,1.642,0,0,1,1.093.5,1.671,1.671,0,0,1,.509,1.222v18.89q0,.04,0,.079a1.661,1.661,0,0,1-.505,1.143,1.644,1.644,0,0,1-1.136.509l-.076,0H145.11l-.069,0a1.734,1.734,0,0,1-1.648-1.73V85.4a1.667,1.667,0,0,1,.505-1.222,1.645,1.645,0,0,1,1.212-.505v0l9.149,0Zm-6.3,18.408v1.176h3.412v-1.176Zm-1.133-6.255h2.243l-1.021,3.534a.309.309,0,0,0,.155.36.3.3,0,0,0,.2.03.306.306,0,0,0,.178-.109l4.158-5.191a.294.294,0,0,0,.063-.215.3.3,0,0,0-.1-.2.3.3,0,0,0-.211-.086h-2.243l1.021-3.53a.321.321,0,0,0-.013-.215.294.294,0,0,0-.142-.149.3.3,0,0,0-.208-.027.313.313,0,0,0-.182.109L146.7,95.326a.291.291,0,0,0-.069.211.314.314,0,0,0,.1.208A.3.3,0,0,0,146.946,95.828Zm3.425-9.382v-1.12H149.2v1.12h-1.12v1.176h1.12v1.12h1.172v-1.12h1.12V86.446Z" transform="translate(-143.392 -83.675)" fill="#d63d4a" fill-rule="evenodd"/>
      </g>
      <g id="Group_64" data-name="Group 64" transform="translate(3.382 0)">
        <rect id="Rectangle_64" data-name="Rectangle 64" width="6.051" height="1.856" fill="#d63d4a"/>
      </g>
    </g>
  </g>
</svg>