<svg xmlns="http://www.w3.org/2000/svg" width="22.52" height="25.992" viewBox="0 0 22.52 25.992">
  <g id="Notifications" transform="translate(-1712.02 -47.004)">
    <path id="Notifications_icon_copy" data-name="Notifications icon copy" d="M1721.544,77.91a.97.97,0,0,1,.126-1.384l.006-.005a1.032,1.032,0,0,1,1.427.13,2.71,2.71,0,0,0,.554.537,2.665,2.665,0,0,0,3.678-.537h.012a1.034,1.034,0,0,1,1.428-.13.969.969,0,0,1,.139,1.381l-.007.008a4.683,4.683,0,0,1-6.479.873,4.588,4.588,0,0,1-.89-.873Zm-2.173-3.613a6.448,6.448,0,0,1-4.067-2,5.24,5.24,0,0,1-1.282-3.56V68.58a5.4,5.4,0,0,1,.964-2.729l.1-.118a4.95,4.95,0,0,0,1.175-2.287V61.089a1.02,1.02,0,0,1,1.318-.551,1,1,0,0,1,.621.757v2.356a.563.563,0,0,1,0,.13,6.792,6.792,0,0,1-1.623,3.179,3.245,3.245,0,0,0-.517,1.624v.252a3.307,3.307,0,0,0,.775,2.229,4.433,4.433,0,0,0,2.75,1.282,54.075,54.075,0,0,0,11.375,0,4.44,4.44,0,0,0,2.808-1.339,3.266,3.266,0,0,0,.74-2.161v-.26a3.37,3.37,0,0,0-.5-1.635,6.806,6.806,0,0,1-1.722-3.179.746.746,0,0,1,0-.13v-2.37c-.34-3.453-3.878-5.588-6.957-5.588a7.744,7.744,0,0,0-3.737.949,1.037,1.037,0,0,1-1.029.006.969.969,0,0,1-.37-1.336.99.99,0,0,1,.419-.389,9.734,9.734,0,0,1,4.63-1.2c4.065,0,8.626,2.812,9.14,7.33V63.4a4.84,4.84,0,0,0,1.175,2.287,1.025,1.025,0,0,1,.094.13,5.2,5.2,0,0,1,.9,2.66l-.036.239a5.316,5.316,0,0,1-1.246,3.579,6.518,6.518,0,0,1-4.137,2,55.056,55.056,0,0,1-11.75,0Z" transform="translate(-2 -6.709)"/>
  </g>
</svg>