<svg id="lock-padlock-symbol-for-protect_icon-icons.com_56926" xmlns="http://www.w3.org/2000/svg" width="26.249" height="34.998" viewBox="0 0 26.249 34.998">
  <path id="Path_78" data-name="Path 78" d="M82.525,15.312V8.75a8.749,8.749,0,1,0-17.5,0v6.562a4.375,4.375,0,0,0-4.375,4.375V30.623A4.375,4.375,0,0,0,65.026,35h17.5A4.375,4.375,0,0,0,86.9,30.623V19.686A4.375,4.375,0,0,0,82.525,15.312Zm-7.656,10.6v3.616a1.094,1.094,0,0,1-2.187,0V25.913a2.154,2.154,0,0,1-1.094-1.852,2.187,2.187,0,1,1,4.375,0A2.155,2.155,0,0,1,74.869,25.913Zm3.281-10.6H69.4V8.75a4.375,4.375,0,1,1,8.749,0v6.562Z" transform="translate(-60.651)"/>
</svg>