<svg id="unlock_icon-icons.com_56877" xmlns="http://www.w3.org/2000/svg" width="38.318" height="38.319" viewBox="0 0 38.318 38.319">
  <path id="Path_79" data-name="Path 79" d="M33.53,16.764H19.16V9.58A9.58,9.58,0,1,0,0,9.58v7.185h4.79V9.58a4.79,4.79,0,1,1,9.58,0v7.185a4.79,4.79,0,0,0-4.79,4.79V33.529a4.79,4.79,0,0,0,4.79,4.79H33.53a4.79,4.79,0,0,0,4.79-4.79V21.554A4.79,4.79,0,0,0,33.53,16.764ZM25.148,28.372v3.96a1.2,1.2,0,1,1-2.395,0v-3.96a2.361,2.361,0,0,1-1.2-2.027,2.395,2.395,0,1,1,4.79,0A2.362,2.362,0,0,1,25.148,28.372Z" transform="translate(-0.001 0)"/>
</svg>