<svg xmlns="http://www.w3.org/2000/svg" width="19.498" height="16.307" viewBox="0 0 19.498 16.307">
  <path id="path2301-7" d="M7.186,1026.19A2.172,2.172,0,0,0,5,1027.649l-1.6,4.133a2.245,2.245,0,0,0-1.759,2.237v5.256H3.2v1.681a1.465,1.465,0,1,0,2.926,0v-1.681h10.53v1.681a1.465,1.465,0,1,0,2.926,0v-1.681h1.558v-5.256a2.245,2.245,0,0,0-1.759-2.237l-1.6-4.133a2.172,2.172,0,0,0-2.186-1.459H7.186Zm-.019,1.505h8.443c.528.007.754.335.9.792l1.206,3.252H5.057l1.206-3.252c.151-.457.377-.787.9-.792Zm-2.459,5.626a1.394,1.394,0,1,1-1.351,1.392A1.372,1.372,0,0,1,4.709,1033.321Zm13.362,0a1.394,1.394,0,1,1-1.353,1.392A1.372,1.372,0,0,1,18.071,1033.321Z" transform="translate(-1.641 -1026.19)" fill="#d63d4a"/>
</svg>