<svg xmlns="http://www.w3.org/2000/svg" width="21" height="19.093" viewBox="0 0 21 19.093">
  <g id="link_copy_icon_215908" transform="translate(0 -1.239)">
    <path id="Path_246" data-name="Path 246" d="M10.148,13.547A3.149,3.149,0,0,1,7.921,8.171L11.17,4.922a3.149,3.149,0,0,1,4.454,4.454l-.352.352-.9-.9.355-.355a1.877,1.877,0,0,0,0-2.651,1.922,1.922,0,0,0-2.654,0L8.821,9.071a1.876,1.876,0,0,0,0,2.653,1.922,1.922,0,0,0,2.654,0l.9.9a3.13,3.13,0,0,1-2.227.922Z" transform="translate(-2.544 -1.487)"/>
    <path id="Path_247" data-name="Path 247" d="M18.148,11.546a3.149,3.149,0,0,1-2.227-5.376l.352-.352.9.9-.352.352a1.876,1.876,0,0,0,0,2.653,1.922,1.922,0,0,0,2.654,0l3.249-3.249a1.878,1.878,0,0,0,0-2.653,1.922,1.922,0,0,0-2.654,0l-.9-.9a3.149,3.149,0,1,1,4.454,4.454l-3.248,3.248A3.131,3.131,0,0,1,18.148,11.546Z" transform="translate(-5.453 -0.76)"/>
    <path id="Path_248" data-name="Path 248" d="M16,21.275H3.273A1.274,1.274,0,0,1,2,20V7.273A1.274,1.274,0,0,1,3.273,6H5.819V7.273H3.273V20H16V13.637h1.273V20A1.274,1.274,0,0,1,16,21.275Z" transform="translate(-0.727 -2.215)"/>
    <rect id="_Transparent_Rectangle_" data-name="&lt;Transparent Rectangle&gt;" width="21" height="19" transform="translate(0 1.333)" fill="none"/>
  </g>
</svg>