<svg id="circle_customer_help_info_information_service_support_icon_123208" xmlns="http://www.w3.org/2000/svg" width="33" height="33" viewBox="0 0 33 33">
  <g id="Layer_2" data-name="Layer 2" transform="translate(3.094 3.094)">
    <path id="Path_164" data-name="Path 164" d="M16.063,12.125a2.063,2.063,0,1,1,2.063-2.062A2.062,2.062,0,0,1,16.063,12.125ZM16.063,10.063Z" transform="translate(-2.656 -2.844)" fill="#d63d4a"/>
    <path id="Path_165" data-name="Path 165" d="M16.406,29.813A13.406,13.406,0,1,1,29.813,16.406,13.406,13.406,0,0,1,16.406,29.813Zm0-24.75A11.344,11.344,0,1,0,27.75,16.406,11.344,11.344,0,0,0,16.406,5.063Z" transform="translate(-3 -3)" fill="#d63d4a"/>
    <path id="Path_166" data-name="Path 166" d="M16.063,24.313A2.063,2.063,0,0,1,14,22.25V16.063a2.063,2.063,0,0,1,4.125,0V22.25A2.063,2.063,0,0,1,16.063,24.313Zm0-8.25Z" transform="translate(-2.656 -2.656)" fill="#d63d4a"/>
  </g>
  <g id="frame">
    <rect id="Rectangle_62" data-name="Rectangle 62" width="33" height="33" fill="none"/>
  </g>
</svg>
