<svg xmlns="http://www.w3.org/2000/svg" width="57" height="42.749" viewBox="0 0 57 42.749">
  <path id="engine_icon_177269" d="M26.417,6.667v4.75h7.124v4.75h4.75v-4.75h7.124V6.667h-19Zm0,14.249a2.456,2.456,0,0,0-1.689.686l-4.036,4.063H14.541a2.382,2.382,0,0,0-2.375,2.375V42.291a2.382,2.382,0,0,0,2.375,2.375h4.036l6.532,4.346a2.308,2.308,0,0,0,1.308.4H38.294a2.34,2.34,0,0,0,1.424-.472l9.5-7.124a2.41,2.41,0,0,0,.951-1.9V23.291a2.382,2.382,0,0,0-2.375-2.375Zm28.5,2.375V37.542h4.75V23.291ZM33.542,25.668v7.124h4.75L31.167,44.668V37.544h-4.75ZM2.667,28.043V39.919h4.75V28.043Z" transform="translate(-2.667 -6.667)" fill="#52c622"/>
</svg>