<svg xmlns="http://www.w3.org/2000/svg" width="41.5" height="31.124" viewBox="0 0 41.5 31.124">
  <path id="engine_icon_177269" d="M19.959,6.667v3.458h5.187v3.458H28.6V10.125h5.187V6.667H19.957Zm0,10.374a1.788,1.788,0,0,0-1.229.5L15.791,20.5H11.312a1.734,1.734,0,0,0-1.729,1.729V32.6a1.734,1.734,0,0,0,1.729,1.729H14.25L19.006,37.5a1.681,1.681,0,0,0,.952.294h8.647a1.7,1.7,0,0,0,1.036-.344l6.916-5.187a1.755,1.755,0,0,0,.693-1.385V18.77a1.734,1.734,0,0,0-1.729-1.729Zm20.75,1.729V29.146h3.458V18.77ZM25.146,20.5v5.187H28.6l-5.187,8.647V29.148H19.959ZM2.667,22.23v8.647H6.125V22.23Z" transform="translate(-2.667 -6.667)" fill="#fff"/>
</svg>