<svg xmlns="http://www.w3.org/2000/svg" width="30.567" height="30.303" viewBox="0 0 30.567 30.303">
  <g id="Group_298" data-name="Group 298" transform="translate(-2.511 -2.906)">
    <path id="Path_179" data-name="Path 179" d="M30.8,17.209l-2.653-.5a1.183,1.183,0,0,1-.9-.758c-.05-.14-.115-.273-.17-.411A6.584,6.584,0,0,1,21.37,9.7c-.215-.092-.428-.19-.648-.268a1.185,1.185,0,0,1-.759-.9l-.5-2.654A1.2,1.2,0,0,0,18.287,4.9H16a1.2,1.2,0,0,0-1.179.979l-.5,2.652a1.184,1.184,0,0,1-.758.9,10.615,10.615,0,0,0-1.035.427,1.184,1.184,0,0,1-1.172-.1L9.13,8.234a1.2,1.2,0,0,0-1.525.142L5.987,10a1.2,1.2,0,0,0-.142,1.525l1.524,2.227a1.185,1.185,0,0,1,.1,1.173,10.618,10.618,0,0,0-.427,1.033,1.184,1.184,0,0,1-.9.758l-2.652.5a1.2,1.2,0,0,0-.978,1.178v2.289a1.2,1.2,0,0,0,.978,1.179l2.652.5a1.185,1.185,0,0,1,.9.758,10.682,10.682,0,0,0,.427,1.034,1.183,1.183,0,0,1-.1,1.172L5.845,27.544a1.2,1.2,0,0,0,.142,1.525l1.619,1.619a1.2,1.2,0,0,0,1.525.142l2.227-1.524a1.186,1.186,0,0,1,1.173-.1,10.574,10.574,0,0,0,1.034.427,1.183,1.183,0,0,1,.758.9l.5,2.654A1.2,1.2,0,0,0,16,34.164h2.289a1.2,1.2,0,0,0,1.179-.978l.5-2.653a1.183,1.183,0,0,1,.758-.9,10.61,10.61,0,0,0,1.035-.427,1.186,1.186,0,0,1,1.172.1l2.227,1.523a1.2,1.2,0,0,0,1.525-.142L28.3,29.069a1.2,1.2,0,0,0,.142-1.525l-1.524-2.227a1.185,1.185,0,0,1-.1-1.172,10.706,10.706,0,0,0,.427-1.034,1.183,1.183,0,0,1,.9-.758l2.654-.5a1.2,1.2,0,0,0,.977-1.179V18.387a1.2,1.2,0,0,0-.978-1.178ZM17.143,24.858a5.327,5.327,0,1,1,5.327-5.326,5.326,5.326,0,0,1-5.327,5.326Z" transform="translate(0 -0.955)" fill="#d63d4a"/>
    <path id="Path_180" data-name="Path 180" d="M46.488,2.906a5.167,5.167,0,1,0,5.167,5.167,5.167,5.167,0,0,0-5.167-5.167Zm-.052,1.715a.784.784,0,0,1,.834.73.909.909,0,0,1,0,.1L47.1,8.073a.608.608,0,0,1-1.214,0l-.175-2.618a.784.784,0,0,1,.73-.835Zm.848,5.913a.782.782,0,0,1-1.564,0v-.082a.782.782,0,0,1,1.564,0Z" transform="translate(-18.578)" fill="#d63d4a"/>
  </g>
</svg>