<svg xmlns="http://www.w3.org/2000/svg" width="24.5" height="18.016" viewBox="0 0 24.5 18.016">
  <g id="eye_112470" transform="translate(0 -9.235)">
    <g id="Group_82" data-name="Group 82" transform="translate(0 9.235)">
      <path id="Path_223" data-name="Path 223" d="M42.723,23.81c-3.118,3.831-6.317,5.98-9.514,6.378a.777.777,0,0,0,.095,1.548.756.756,0,0,0,.1-.006c3.751-.467,7.429-2.97,10.932-7.44a.8.8,0,0,0,.038-.075.934.934,0,0,0,.106-.268.749.749,0,0,0,.01-.141.725.725,0,0,0-.01-.139.753.753,0,0,0-.053-.164.8.8,0,0,0-.052-.1.694.694,0,0,0-.038-.076,26.84,26.84,0,0,0-4.179-4.338.777.777,0,1,0-.975,1.209,24.611,24.611,0,0,1,3.545,3.616Z" transform="translate(-19.986 -15.12)" fill="#d63d4a"/>
      <path id="Path_224" data-name="Path 224" d="M.016,17.985a.758.758,0,0,0,.2.446A17.651,17.651,0,0,0,8.543,25.3l-.444.8a.777.777,0,1,0,1.356.757l9.192-16.462a.777.777,0,0,0-1.356-.757l-.7,1.255c-3.909-1.7-7.951-1.149-11.734,1.627A20.307,20.307,0,0,0,.119,17.5a.675.675,0,0,0-.029.076.756.756,0,0,0-.044.115.766.766,0,0,0-.034.17c0,.021-.012.039-.012.061a.473.473,0,0,0,.016.061Zm12.24-5.677a4.811,4.811,0,0,1,2.971,1.021l-4.668,8.36a4.843,4.843,0,0,1,1.7-9.381Zm-4.426.235A6.387,6.387,0,0,0,9.793,23.06l-.477.853c-3.94-1.256-6.744-4.8-7.6-5.994a17.7,17.7,0,0,1,6.114-5.376Z" transform="translate(0 -9.235)" fill="#d63d4a"/>
    </g>
  </g>
</svg>