<svg xmlns="http://www.w3.org/2000/svg" width="20" height="20" viewBox="0 0 20 20">
  <g id="plug_disconnected_regular_icon_204279" transform="translate(-2 -2)">
    <path id="Path_225" data-name="Path 225" d="M21.78,3.28A.75.75,0,0,0,20.72,2.22L18.708,4.232a4.251,4.251,0,0,0-5.463.463L12.177,5.763a1.75,1.75,0,0,0,0,2.475l3.586,3.586a1.75,1.75,0,0,0,2.475,0l1.068-1.068a4.251,4.251,0,0,0,.463-5.463ZM18.194,5.755l.023.023,0,0,0,0,.023.023a2.75,2.75,0,0,1,0,3.889l-1.068,1.068a.25.25,0,0,1-.354,0L13.237,7.177a.25.25,0,0,1,0-.354l1.068-1.068A2.75,2.75,0,0,1,18.194,5.755Z" fill="#d63d4a"/>
    <path id="Path_226" data-name="Path 226" d="M10.78,11.28A.75.75,0,1,0,9.72,10.22L8,11.939l-.47-.47a.75.75,0,0,0-1.061,0L4.695,13.245a4.251,4.251,0,0,0-.463,5.463L2.22,20.72A.75.75,0,0,0,3.28,21.78l2.012-2.012a4.251,4.251,0,0,0,5.463-.463L12.53,17.53a.75.75,0,0,0,0-1.061l-.47-.47,1.72-1.72A.75.75,0,0,0,12.72,13.22L11,14.939,9.061,13ZM7.466,13.527l0,0,0,0,2.993,2.993,0,0,0,0,.466.466L9.695,18.245a2.75,2.75,0,0,1-3.889,0l-.05-.05a2.75,2.75,0,0,1,0-3.889L7,13.061Z" fill="#d63d4a"/>
  </g>
</svg>