<svg xmlns="http://www.w3.org/2000/svg" width="39.785" height="35.566" viewBox="0 0 39.785 35.566">
  <g id="_1495574612-map-location-solid-style-15_84563" data-name="1495574612-map-location-solid-style-15_84563" transform="translate(-14.8 -14.7)">
    <path id="Path_167" data-name="Path 167" d="M53.547,40.6H33.492V36.9H48.354a1.137,1.137,0,0,0,1.1-1.1V28.784a1.137,1.137,0,0,0-1.1-1.1H43.422V24.37c1.233-1.493,3.115-3.894,3.115-5.452a4.219,4.219,0,1,0-8.437,0c0,1.558,1.882,4.024,3.115,5.452v4.413a1.137,1.137,0,0,0,1.1,1.1h4.933v4.868H32.389a1.137,1.137,0,0,0-1.1,1.1v5.906a1.137,1.137,0,0,0,1.1,1.1H52.443V48.06H22.329V45.269c1.817-2.077,5.322-6.36,5.322-8.957a6.425,6.425,0,1,0-12.851,0c0,2.6,3.5,6.88,5.322,8.957v3.894a1.137,1.137,0,0,0,1.1,1.1H53.482a1.137,1.137,0,0,0,1.1-1.1V41.7A1.042,1.042,0,0,0,53.547,40.6ZM42.319,17.556a1.363,1.363,0,0,1,0,2.726,1.364,1.364,0,1,1,0-2.726Zm-23.235,18.5A2.207,2.207,0,1,1,21.29,38.26,2.274,2.274,0,0,1,19.084,36.053Z" fill="#d63d4a"/>
  </g>
</svg>