<svg xmlns="http://www.w3.org/2000/svg" width="23.587" height="21.334" viewBox="0 0 23.587 21.334">
  <path id="driving_driver_icon_177271" d="M9.053,5.333A2.807,2.807,0,1,0,11.86,8.14,2.807,2.807,0,0,0,9.053,5.333ZM19.735,8.518l-.474,2.842-3.1,1.772L11.476,12.2a2.242,2.242,0,0,0-2.276.48,2.328,2.328,0,0,0-.259,2.987L13.353,22.3a2.356,2.356,0,0,0,.651.64l1.5-5.513-1.645-2.463,2.268.454a1.123,1.123,0,0,0,.776-.127l1.877-1.072-.173,1.037,2.215.368,1.123-6.737-2.215-.368ZM14,22.939l-1.022,3.728h2.246l.976-3.592a2.259,2.259,0,0,1-2.2-.136Zm2.2.136c.011,0,.013-.013.024-.013l5.175-2.39,3.548,4.211a1.49,1.49,0,0,0,1.191.6,1.416,1.416,0,0,0,.875-.292,1.434,1.434,0,0,0,.371-1.875l-3.772-5.827a2.015,2.015,0,0,0-2.382-.809L17.6,18,16.2,23.076ZM4,12.07v2.178l.763.2,1.515.406a4.443,4.443,0,0,1-.033-.539,4.293,4.293,0,0,1,.292-1.572L4.9,12.309,4,12.072Z" transform="translate(-4 -5.333)" fill="#d63d4a"/>
</svg>