<svg xmlns="http://www.w3.org/2000/svg" width="45.532" height="45.531" viewBox="0 0 45.532 45.531">
  <g id="iconfinder-bl-1641-engine-development-magnifier-search-fix-motor-car0a-4575052_121502" transform="translate(0.044)">
    <g id="Group_92" data-name="Group 92" transform="translate(0.01 1)">
      <line id="Line_69" data-name="Line 69" y2="10.41" transform="translate(40.692 19.873)" fill="none" stroke="#52c622" stroke-miterlimit="10" stroke-width="2"/>
      <line id="Line_70" data-name="Line 70" y2="10.41" transform="translate(36.907 19.873)" fill="none" stroke="#52c622" stroke-miterlimit="10" stroke-width="2"/>
      <line id="Line_71" data-name="Line 71" x2="4.732" transform="translate(0 20.819)" fill="none" stroke="#52c622" stroke-miterlimit="10" stroke-width="2"/>
      <line id="Line_72" data-name="Line 72" y1="8.517" transform="translate(0.946 12.302)" fill="none" stroke="#52c622" stroke-miterlimit="10" stroke-width="2"/>
      <line id="Line_73" data-name="Line 73" x2="20.346" transform="translate(8.99 9.463)" fill="none" stroke="#52c622" stroke-linecap="round" stroke-miterlimit="10" stroke-width="2"/>
      <line id="Line_74" data-name="Line 74" y2="8.517" transform="translate(0.946 20.819)" fill="none" stroke="#52c622" stroke-miterlimit="10" stroke-width="2"/>
      <path id="Path_231" data-name="Path 231" d="M26.766,36.283H37.185V31.551H40.97v4.732h2.366a54.711,54.711,0,0,0,0-24.6H40.97V16.41H37.185V12.624a1.893,1.893,0,0,0-1.893-1.893h-.946L30.087,6H14L9.741,10.732H6.9A1.893,1.893,0,0,0,5.01,12.624V30.6H8.8l3.785,5.678H19.2" transform="translate(-0.278 -1.268)" fill="none" stroke="#52c622" stroke-linecap="round" stroke-miterlimit="10" stroke-width="2"/>
      <line id="Line_75" data-name="Line 75" x2="1.893" transform="translate(7.571 13.249)" fill="none" stroke="#52c622" stroke-miterlimit="10" stroke-width="2"/>
      <line id="Line_76" data-name="Line 76" x2="15.141" transform="translate(14.195)" fill="none" stroke="#52c622" stroke-miterlimit="10" stroke-width="2"/>
      <line id="Line_77" data-name="Line 77" y2="4.732" transform="translate(17.034)" fill="none" stroke="#52c622" stroke-miterlimit="10" stroke-width="2"/>
      <line id="Line_78" data-name="Line 78" y2="4.732" transform="translate(26.497)" fill="none" stroke="#52c622" stroke-miterlimit="10" stroke-width="2"/>
    </g>
    <circle id="Ellipse_22" data-name="Ellipse 22" cx="8.517" cy="8.517" r="8.517" transform="translate(14.195 15.195)" fill="none" stroke="#52c622" stroke-linecap="round" stroke-miterlimit="10" stroke-width="2"/>
    <line id="Line_79" data-name="Line 79" y2="12.302" transform="translate(22.712 32.229)" fill="none" stroke="#52c622" stroke-linecap="round" stroke-linejoin="round" stroke-width="2"/>
  </g>
</svg>