<svg xmlns="http://www.w3.org/2000/svg" width="19.942" height="22.158" viewBox="0 0 19.942 22.158">
  <path id="export_icon_143019" d="M18.51,10.863V8.647h1.108a3.324,3.324,0,0,1,3.324,3.324v8.863a3.324,3.324,0,0,1-3.324,3.324H6.324A3.324,3.324,0,0,1,3,20.834V11.971A3.324,3.324,0,0,1,6.324,8.647H7.432v2.216H6.324a1.108,1.108,0,0,0-1.108,1.108v8.863a1.108,1.108,0,0,0,1.108,1.108H19.618a1.108,1.108,0,0,0,1.108-1.108V11.971a1.108,1.108,0,0,0-1.108-1.108Zm-6.7-4.484-1.3,1.283a1.167,1.167,0,0,1-1.637,0,1.134,1.134,0,0,1,0-1.618L12.971,2l4.093,4.044a1.134,1.134,0,0,1,0,1.618,1.167,1.167,0,0,1-1.637,0l-1.3-1.283v8.879a1.158,1.158,0,0,1-2.315,0Z" transform="translate(-3 -2)" fill="#a8a8a8" fill-rule="evenodd"/>
</svg>