<svg xmlns="http://www.w3.org/2000/svg" width="28.5" height="28.5" viewBox="0 0 28.5 28.5">
  <path id="fuel_icon_180642" d="M27.917,7.333H26.333V2.583h0a1.583,1.583,0,1,0-3.167,0h0v4.75A3.167,3.167,0,0,0,26.333,10.5V23.958a.792.792,0,1,1-1.583,0V18.417A4.75,4.75,0,0,0,20,13.667v-9.5A3.167,3.167,0,0,0,16.833,1H4.167A3.167,3.167,0,0,0,1,4.167V26.333A3.167,3.167,0,0,0,4.167,29.5H16.833A3.167,3.167,0,0,0,20,26.333v-9.5a1.584,1.584,0,0,1,1.583,1.583v5.542a3.958,3.958,0,0,0,7.917,0V8.917A1.584,1.584,0,0,0,27.917,7.333Zm-11.083,4.75a1.552,1.552,0,0,1-1.519,1.583h-9.5a1.615,1.615,0,0,1-1.647-1.583h0V7.333A1.584,1.584,0,0,1,5.75,5.75h9.5a1.584,1.584,0,0,1,1.583,1.583Z" transform="translate(-1 -1)" fill="#d63d4a"/>
</svg>