<svg xmlns="http://www.w3.org/2000/svg" width="31.996" height="31.996" viewBox="0 0 31.996 31.996">
  <g id="Layer_2" data-name="Layer 2" transform="translate(-2 -2)">
    <path id="Path_139" data-name="Path 139" d="M30,27.6a4,4,0,0,0,4-4V7.743L29.533,3.264,27.261,5.536,30.8,9.055V23.6a.8.8,0,0,1-1.6,0V22.11a4.8,4.8,0,0,0-4.8-4.8V2H2V34H34V30.8H24.4V20.51a1.6,1.6,0,0,1,1.6,1.6V23.6A4,4,0,0,0,30,27.6ZM6.8,6.8H19.6v9.6H6.8Z" transform="translate(0 0)" fill="#52c622"/>
    <rect id="Rectangle_54" data-name="Rectangle 54" width="6" height="3" transform="translate(9.998 9.998)" fill="#52c622"/>
  </g>
</svg>