<svg xmlns="http://www.w3.org/2000/svg" width="98" height="114.036" viewBox="0 0 98 114.036">
  <g id="surface1" transform="translate(-20 -8)">
    <path id="Path_193" data-name="Path 193" d="M28.909,8A8.935,8.935,0,0,0,20,16.909v96.218a8.935,8.935,0,0,0,8.909,8.909H82.364a8.935,8.935,0,0,0,8.909-8.909V84.618H87.709v16.036H23.564V25.818H87.709v7.127h3.564V16.909A8.935,8.935,0,0,0,82.364,8Zm0,3.564H82.364a5.32,5.32,0,0,1,5.345,5.345v5.345H23.564V16.909A5.32,5.32,0,0,1,28.909,11.564Zm19.6,3.564a1.782,1.782,0,1,0,0,3.564H62.764a1.782,1.782,0,1,0,0-3.564Zm-7.218,0a1.782,1.782,0,0,0-.007,3.564,1.745,1.745,0,0,0,1.26-.515,1.782,1.782,0,0,0-1.253-3.049Zm-10.6,14.255a1.782,1.782,0,1,0,1.782,1.782A1.785,1.785,0,0,0,30.691,29.382Zm0,7.127a1.782,1.782,0,1,0,1.782,1.782A1.785,1.785,0,0,0,30.691,36.509Zm24.945,0a7.15,7.15,0,0,0-7.127,7.127V73.927a7.15,7.15,0,0,0,7.127,7.127h8.909V92.483L75.974,81.055h34.9A7.15,7.15,0,0,0,118,73.927V43.636a7.15,7.15,0,0,0-7.127-7.127Zm0,3.564h55.236a3.535,3.535,0,0,1,3.564,3.564V73.927a3.535,3.535,0,0,1-3.564,3.564H74.5L68.109,83.88V77.491H55.636a3.535,3.535,0,0,1-3.564-3.564V43.636A3.535,3.535,0,0,1,55.636,40.073ZM30.691,43.636a1.782,1.782,0,1,0,1.782,1.782A1.785,1.785,0,0,0,30.691,43.636Zm0,7.127a1.782,1.782,0,1,0,1.782,1.782A1.785,1.785,0,0,0,30.691,50.764Zm33.855,1.782V55.7l-2.728-1.573L60.035,57.2l2.728,1.58-2.728,1.58,1.782,3.076,2.728-1.573v3.153h3.564V61.865l2.729,1.573,1.782-3.076-2.729-1.58,2.729-1.58-1.782-3.076L68.109,55.7V52.545Zm17.818,0v3.146l-2.728-1.566L77.854,57.2l2.728,1.58-2.728,1.58,1.782,3.076,2.728-1.566v3.146h3.564V61.872l2.729,1.566,1.782-3.076-2.729-1.58,2.729-1.58-1.782-3.076-2.729,1.566V52.545Zm17.818,0V55.7l-2.728-1.573L95.672,57.2l2.728,1.58-2.728,1.58,1.782,3.076,2.728-1.573v3.153h3.564V61.865l2.729,1.573,1.782-3.076-2.729-1.58,2.729-1.58-1.782-3.076L103.745,55.7V52.545ZM30.691,57.891a1.782,1.782,0,1,0,1.782,1.782A1.785,1.785,0,0,0,30.691,57.891Zm0,7.127A1.782,1.782,0,1,0,32.473,66.8,1.785,1.785,0,0,0,30.691,65.018Zm0,7.127a1.782,1.782,0,1,0,1.782,1.782A1.785,1.785,0,0,0,30.691,72.145Zm0,7.127a1.782,1.782,0,1,0,1.782,1.782A1.785,1.785,0,0,0,30.691,79.273Zm0,7.127a1.782,1.782,0,1,0,1.782,1.782A1.785,1.785,0,0,0,30.691,86.4Zm0,7.127a1.782,1.782,0,1,0,1.782,1.782A1.785,1.785,0,0,0,30.691,93.527Zm-7.127,10.691H87.709v8.909a5.32,5.32,0,0,1-5.345,5.345H28.909a5.32,5.32,0,0,1-5.345-5.345Zm32.073,3.564a3.564,3.564,0,1,0,3.564,3.564A3.562,3.562,0,0,0,55.636,107.782Z" fill="#fff"/>
  </g>
</svg>