<svg xmlns="http://www.w3.org/2000/svg" width="46.795" height="24.627" viewBox="0 0 46.795 24.627">
  <path id="helicopter_icon_148224" d="M46.578,20.515a.764.764,0,0,0-1.048,0l-2.586,2.639H35.988V19.985H41.9a8.992,8.992,0,0,0,1.654-.149,2.2,2.2,0,0,0,1.35-.85,2.292,2.292,0,0,0,.469-1.548,5.66,5.66,0,0,0-.393-1.77L42.74,10.338a6.812,6.812,0,0,0-2.818-3.424,7.3,7.3,0,0,0-3.662-.965H27.309V1.7h2.62a1.086,1.086,0,0,0,.548.5,1.4,1.4,0,0,0,.533.116H43.6a1.167,1.167,0,0,0,.917-.344,1.554,1.554,0,0,0,.384-.81A1.191,1.191,0,0,0,43.6,0H31.477a2.2,2.2,0,0,0-1.115.2A1.416,1.416,0,0,0,29.929.7H22.754c-.1-.107-.213-.238-.344-.393a.9.9,0,0,0-.728-.228H8.944a1.463,1.463,0,0,0-.737.271.988.988,0,0,0-.417.893,1.067,1.067,0,0,0,.417.917,1.33,1.33,0,0,0,.664.311H21.682a2.1,2.1,0,0,0,.5-.116,1.036,1.036,0,0,0,.573-.582h2.7V5.947H9.338A5.126,5.126,0,0,0,7.6,3.744a4.493,4.493,0,0,0-2.742-.887A4.7,4.7,0,0,0,1.426,4.283,4.663,4.663,0,0,0,0,7.723a4.531,4.531,0,0,0,1.426,3.391,4.725,4.725,0,0,0,3.433,1.392,4.3,4.3,0,0,0,3.619-1.7l10.5,3.939,1.386,3.464a5.877,5.877,0,0,0,.81,1.206,2.86,2.86,0,0,0,2.13.573H27.97v3.169H20.363a.737.737,0,1,0,0,1.474H43.294a.658.658,0,0,0,.542-.3l2.742-2.767A.743.743,0,0,0,46.578,20.515ZM38.036,8.11a4.478,4.478,0,0,1,1.73.956,6.1,6.1,0,0,1,1.358,2.047,10.5,10.5,0,0,0,.384,1.008c.149.35.3.737.46,1.155H38.035V8.11Zm-34.063.85a5.329,5.329,0,0,0,1.2.606l1.548.621A3.132,3.132,0,0,1,4.86,10.8a3.149,3.149,0,0,1-2.245-.883,2.912,2.912,0,0,1-.917-2.2,2.917,2.917,0,0,1,.917-2.2A3.135,3.135,0,0,1,4.86,4.636a2.953,2.953,0,0,1,2.547,1.31H5.243a1.9,1.9,0,0,0-1.31.466A1.609,1.609,0,0,0,3.4,7.723,1.384,1.384,0,0,0,3.973,8.959ZM32.631,7.878H36.1V13.2H32.631Zm-5.323.073h3.4v5.325h-3.4V7.951Zm1.883,12.033h5.569v3.169H29.192Z" fill="#fff"/>
</svg>