<svg xmlns="http://www.w3.org/2000/svg" width="21" height="21" viewBox="0 0 21 21">
  <g id="Layer_30" data-name="Layer 30" transform="translate(-1 -1)">
    <path id="Path_220" data-name="Path 220" d="M21.661,1H1.339A.339.339,0,0,0,1,1.339V2.694a.339.339,0,0,0,.339.339h9.145v2.71h-.339a.339.339,0,0,0-.339.339V7.1H6.081a.339.339,0,0,0-.24.1L2.453,10.582a.339.339,0,0,0-.1.24v5.419a.339.339,0,0,0,.1.24L5.84,19.87a.339.339,0,0,0,.24.1h5.758v1.016a1.016,1.016,0,1,0,2.032,0v-.677a.339.339,0,0,1,.677,0,1.016,1.016,0,1,0,2.032,0,.339.339,0,0,1,.339-.339h.169a1.185,1.185,0,0,0,1.185-1.185v-.03l2.273-2.269a.339.339,0,0,0,.1-.24V10.823a.339.339,0,0,0-.1-.24L17.16,7.2a.339.339,0,0,0-.24-.1H13.194V6.081a.339.339,0,0,0-.339-.339h-.339V3.032h9.145A.339.339,0,0,0,22,2.694V1.339A.339.339,0,0,0,21.661,1ZM5.742,15.226H3.032V13.871h2.71Zm0-2.032H3.032V11.839h2.71ZM3.032,15.9h2.71v1.355H4.187L3.032,16.1ZM6.22,19.29,4.865,17.935h.877v.339a.339.339,0,0,0,.339.339h5.758v.677Zm3.248-1.355V14.548h1.694v3.387Zm2.371,0V14.548h1.694v3.387Zm2.032-4.065H9.129a.339.339,0,0,0-.339.339v3.726H6.419V11.161H16.581v6.774H14.21V14.21A.339.339,0,0,0,13.871,13.871Zm3.218,5.419h-.169A1.016,1.016,0,0,0,15.9,20.306a.339.339,0,1,1-.677,0,1.016,1.016,0,0,0-2.032,0v.677a.339.339,0,1,1-.677,0V18.613h4.4a.339.339,0,0,0,.339-.339H17.6v.508a.508.508,0,0,1-.508.508Zm.169-7.452h2.71v1.355h-2.71Zm0,2.032h2.71v1.694h-2.71Zm0,2.371h2.571L18.474,17.6H17.258Zm2.71-5.081h-2.71v-.339a.339.339,0,0,0-.339-.339H6.081a.339.339,0,0,0-.339.339v.339H3.032v-.2L4.187,9.806H18.813l1.155,1.155ZM18.135,9.129H4.865L6.22,7.774H16.78ZM10.484,7.1V6.419h2.032V7.1Zm1.355-1.355h-.677V3.032h.677Zm9.484-3.387H1.677V1.677H21.323Z" fill="#d63d4a"/>
    <path id="Path_221" data-name="Path 221" d="M50,13.016A1.016,1.016,0,1,0,51.016,12,1.016,1.016,0,0,0,50,13.016Zm1.355,0a.339.339,0,1,1-.339-.339A.339.339,0,0,1,51.355,13.016Z" transform="translate(-32.403 -7.274)" fill="#d63d4a"/>
    <path id="Path_222" data-name="Path 222" d="M10.032,10.016a1.016,1.016,0,1,0-1.016,1.016A1.016,1.016,0,0,0,10.032,10.016Zm-1.355,0a.339.339,0,1,1,.339.339A.339.339,0,0,1,8.677,10.016Z" transform="translate(-4.629 -5.29)" fill="#d63d4a"/>
  </g>
</svg>