<svg id="Layer_17" xmlns="http://www.w3.org/2000/svg" width="32" height="32" viewBox="0 0 32 32">
  <path id="Path_184" data-name="Path 184" d="M30.8,22.4l-4-6a1,1,0,0,0-1.6,0l-4,6a6,6,0,1,0,9.606,0Zm-1.975,6.425A4.091,4.091,0,0,1,26,30V28c1,0,1.028-.2,1.412-.586A1.976,1.976,0,0,0,28,26h2A3.983,3.983,0,0,1,28.827,28.828Z" fill="#d63d4a"/>
  <path id="Path_185" data-name="Path 185" d="M2,23.816V25a3,3,0,0,0,3,3H7a3,3,0,0,0,3-3V24h8V22H3a1,1,0,0,1-1-1V13a1,1,0,0,1,1-1H29a1,1,0,0,1,1,1v5h2V13a3,3,0,0,0-2.286-2.9L26.933,3.143A5,5,0,0,0,22.29,0H9.707A5,5,0,0,0,5.064,3.143L2.284,10.1A3,3,0,0,0,0,13v8C0,22.305,0,23.4,2,23.816ZM4,24H8v1a1,1,0,0,1-1,1H5a1,1,0,0,1-1-1ZM6.921,3.886A3,3,0,0,1,9.707,2H22.29a3,3,0,0,1,2.785,1.886L27.521,10H4.476Z" fill="#d63d4a"/>
  <path id="Path_186" data-name="Path 186" d="M7,14a3,3,0,1,0,3,3A3,3,0,0,0,7,14Zm0,4a1,1,0,1,1,1-1A1.006,1.006,0,0,1,7,18Z" fill="#d63d4a"/>
  <rect id="Rectangle_66" data-name="Rectangle 66" width="8" height="2" transform="translate(12 18)" fill="#d63d4a"/>
  <rect id="Rectangle_67" data-name="Rectangle 67" width="32" height="32" fill="none"/>
</svg>