<svg id="Layer_2" data-name="Layer 2" xmlns="http://www.w3.org/2000/svg" width="30" height="30" viewBox="0 0 30 30">
  <g id="Interface-Solid">
    <g id="interface-solid-pin-location">
      <circle id="Ellipse_7" data-name="Ellipse 7" cx="3.429" cy="3.429" r="3.429" transform="translate(11.571 6.143)" fill="none"/>
      <path id="Path_151" data-name="Path 151" d="M25.312,20.4a1,1,0,1,0-.623,1.9c2.288.75,3.312,1.645,3.312,2.2,0,1.394-5.185,3.5-13,3.5S2,25.894,2,24.5c0-.554,1.024-1.449,3.312-2.2a1,1,0,1,0-.623-1.9C.813,21.671,0,23.331,0,24.5,0,28.11,7.546,30,15,30s15-1.89,15-5.5C30,23.331,29.187,21.671,25.312,20.4Z" fill="#d63d4a"/>
      <path id="Path_152" data-name="Path 152" d="M14.375,25.781a1,1,0,0,0,1.249,0c.366-.293,8.947-7.261,8.947-16.21a9.571,9.571,0,0,0-19.143,0C5.429,18.521,14.01,25.488,14.375,25.781Zm-2.8-16.21A3.429,3.429,0,1,1,15,13a3.429,3.429,0,0,1-3.429-3.429Z" fill="#d63d4a"/>
    </g>
  </g>
</svg>