<svg id="lock-padlock-symbol-for-protect_icon-icons.com_56926" xmlns="http://www.w3.org/2000/svg" width="15.749" height="20.998" viewBox="0 0 15.749 20.998">
  <path id="Path_78" data-name="Path 78" d="M73.775,9.187V5.25a5.249,5.249,0,1,0-10.5,0V9.187a2.625,2.625,0,0,0-2.625,2.625v6.562A2.625,2.625,0,0,0,63.276,21h10.5A2.625,2.625,0,0,0,76.4,18.373V11.811A2.625,2.625,0,0,0,73.775,9.187Zm-4.593,6.36v2.17a.656.656,0,0,1-1.312,0v-2.17a1.292,1.292,0,0,1-.656-1.111,1.312,1.312,0,1,1,2.625,0A1.293,1.293,0,0,1,69.182,15.547Zm1.968-6.36H65.9V5.25a2.625,2.625,0,1,1,5.249,0V9.187Z" transform="translate(-60.651)" fill="#d63d4a"/>
</svg>