<svg xmlns="http://www.w3.org/2000/svg" width="31.08" height="28.588" viewBox="0 0 31.08 28.588">
  <g id="Group_295" data-name="Group 295" transform="translate(-341 -359.453)">
    <g id="lock-padlock-symbol-for-protect_icon-icons.com_56926" transform="translate(341 361.002)">
      <path id="Path_78" data-name="Path 78" d="M77.55,11.83V6.76a6.76,6.76,0,1,0-13.519,0v5.07a3.38,3.38,0,0,0-3.38,3.38v8.45a3.38,3.38,0,0,0,3.38,3.38H77.55a3.38,3.38,0,0,0,3.38-3.38v-8.45A3.38,3.38,0,0,0,77.55,11.83Zm-5.915,8.19v2.794a.845.845,0,0,1-1.69,0V20.02a1.664,1.664,0,0,1-.845-1.431,1.69,1.69,0,1,1,3.38,0A1.665,1.665,0,0,1,71.636,20.02Zm2.535-8.19h-6.76V6.76a3.38,3.38,0,1,1,6.76,0v5.07Z" transform="translate(-60.651)" fill="#d63d4a"/>
    </g>
    <g id="unlock_icon-icons.com_56877" transform="translate(357.012 359.453)">
      <path id="Path_79" data-name="Path 79" d="M13.186,6.593H7.535V3.767A3.767,3.767,0,1,0,0,3.767V6.593H1.885V3.767a1.884,1.884,0,1,1,3.767,0V6.593A1.884,1.884,0,0,0,3.768,8.476v4.709a1.884,1.884,0,0,0,1.884,1.884h7.534a1.884,1.884,0,0,0,1.884-1.884V8.476A1.884,1.884,0,0,0,13.186,6.593Zm-3.3,4.564v1.557a.471.471,0,0,1-.942,0V11.157a.928.928,0,0,1-.471-.8.942.942,0,1,1,1.884,0A.929.929,0,0,1,9.89,11.157Z" transform="translate(-0.001 0)" fill="#d63d4a"/>
    </g>
  </g>
</svg>