<svg xmlns="http://www.w3.org/2000/svg" width="41.539" height="33.417" viewBox="0 0 41.539 33.417">
  <path id="path1382" d="M2.375,277.41a1.416,1.416,0,0,0-1.405,1.4v4.021H36.479v-4.021a1.415,1.415,0,0,0-1.4-1.4Zm1.943,2.744h.673a.671.671,0,0,1,0,1.341H4.319a.671.671,0,0,1,0-1.341Zm3.354,0H8.34a.671.671,0,1,1,0,1.341H7.672a.671.671,0,1,1,0-1.341Zm3.347,0h.669a.671.671,0,1,1,0,1.341H11.02a.671.671,0,0,1,0-1.341ZM.97,284.175v19.362a1.416,1.416,0,0,0,1.405,1.4H27.74c-.018-.221-.034-.442-.034-.667a8.255,8.255,0,0,1,8.245-8.244c.178,0,.353.016.529.026V284.175Zm7.565,1.359a1.65,1.65,0,0,1,1.449.813l3.212,5.566a1.693,1.693,0,0,1-1.45,2.506H5.322a1.692,1.692,0,0,1-1.446-2.506l3.212-5.566a1.646,1.646,0,0,1,1.446-.813Zm0,1.3a.336.336,0,0,0-.287.186l-3.212,5.566a.313.313,0,0,0,.287.5h6.424a.315.315,0,0,0,.29-.5L8.82,287.019a.334.334,0,0,0-.285-.186Zm-.024,1.46h.024a.59.59,0,0,1,.59.588v1.82a.589.589,0,1,1-1.178,0v-1.82a.59.59,0,0,1,.564-.588Zm.024,3.182a.589.589,0,1,1-.588.591.589.589,0,0,1,.588-.591Zm-4.216,4.09H9.012a.668.668,0,0,1,0,1.336H4.319a.668.668,0,0,1,0-1.336Zm7.37,0H25.757a.668.668,0,1,1,0,1.336H11.688a.668.668,0,1,1,0-1.336Zm23.56,2.152a1.151,1.151,0,0,0-1.142,1.142v.835c0,.05-.009.034-.034.044s-.014.027-.05-.01l-.594-.589a1.153,1.153,0,0,0-1.617,0l-.993.995a1.153,1.153,0,0,0,0,1.617l.589.588c.036.036.02.03.009.055s.006.03-.044.03H30.54a1.159,1.159,0,0,0-1.148,1.146v1.405a1.155,1.155,0,0,0,1.148,1.142h.831c.05,0,.034.006.044.029s.026.018-.009.055l-.589.589a1.159,1.159,0,0,0,0,1.623l.993.988a1.153,1.153,0,0,0,1.617,0l.594-.588c.036-.036.025-.02.05-.01s.034-.006.034.044v.836a1.151,1.151,0,0,0,1.142,1.142h1.405a1.154,1.154,0,0,0,1.146-1.142v-.836c0-.05.005-.034.03-.044s.019-.026.055.01l.589.588a1.152,1.152,0,0,0,1.616,0l.994-.988a1.159,1.159,0,0,0,0-1.623L40.5,306.2c-.036-.036-.02-.03-.009-.055s-.006-.029.044-.029h.831a1.156,1.156,0,0,0,1.148-1.142v-1.405a1.159,1.159,0,0,0-1.148-1.146h-.831c-.05,0-.034-.006-.044-.03s-.026-.018.009-.055l.589-.588a1.153,1.153,0,0,0,0-1.617l-.994-.995a1.152,1.152,0,0,0-1.616,0l-.589.589c-.036.036-.03.02-.055.01s-.03.006-.03-.044v-.835a1.154,1.154,0,0,0-1.146-1.142Zm-30.929.523H25.757a.67.67,0,1,1,0,1.34H4.319a.67.67,0,0,1,0-1.34Zm18.759,2.681h2.68a.67.67,0,1,1,0,1.34h-2.68a.67.67,0,0,1,0-1.34Zm12.873.326a3.025,3.025,0,1,1-3.027,3.027A3.038,3.038,0,0,1,35.951,301.247Zm0,1.34a1.684,1.684,0,1,0,1.687,1.687A1.678,1.678,0,0,0,35.951,302.587Z" transform="translate(-0.97 -277.41)" fill="#d63d4a"/>
</svg>