<svg id="Group_95" data-name="Group 95" xmlns="http://www.w3.org/2000/svg" width="38.807" height="36.377" viewBox="0 0 38.807 36.377">
  <path id="Path_233" data-name="Path 233" d="M33.45,15.96a7.943,7.943,0,0,0-.8-1.561A7.276,7.276,0,0,0,20.623,7.846,10.915,10.915,0,0,0,3.64,16.676,7.275,7.275,0,0,0,7.275,30.253h4.608l.97-2.425H7.272a4.851,4.851,0,0,1-1.1-9.574,8.392,8.392,0,0,1-.105-1.339A8.489,8.489,0,0,1,22.677,14.46a5.458,5.458,0,0,1,8.816,3.668h.036a4.85,4.85,0,0,1,0,9.7H27.889l-2.425,2.425h6.063A7.276,7.276,0,0,0,33.45,15.96Zm-7.38-5.107a7.861,7.861,0,0,0-2.236.323A10.95,10.95,0,0,0,22.5,9.438a4.849,4.849,0,0,1,7.638,2.545A7.833,7.833,0,0,0,26.07,10.852Z" transform="translate(0 0.061)" fill="#d63d4a"/>
  <path id="Path_234" data-name="Path 234" d="M20.488,19h-5.2L12,27.49h2.945l-1.733,6.063L21.7,25.065H17.518Z" transform="translate(2.551 2.824)" fill="#d63d4a"/>
  <path id="Path_235" data-name="Path 235" d="M27.737,7.709l1.7-1.7A1.212,1.212,0,1,0,27.72,4.3l-1.7,1.7a1.212,1.212,0,1,0,1.715,1.715Z" transform="translate(5.454 -0.379)" fill="#d63d4a"/>
  <path id="Path_236" data-name="Path 236" d="M21.213,5.852a1.211,1.211,0,0,0,1.213-1.225v-2.4a1.213,1.213,0,1,0-2.425,0v2.4A1.215,1.215,0,0,0,21.213,5.852Z" transform="translate(4.251 -1.002)" fill="#d63d4a"/>
  <path id="Path_237" data-name="Path 237" d="M28,12.219a1.212,1.212,0,0,0,1.225,1.213h2.4a1.213,1.213,0,1,0,0-2.425h-2.4A1.215,1.215,0,0,0,28,12.219Z" transform="translate(5.952 1.124)" fill="#d63d4a"/>
</svg>