<svg id="Group_66" data-name="Group 66" xmlns="http://www.w3.org/2000/svg" width="30.474" height="23.984" viewBox="0 0 48.474 23.984">
  <path id="Path_181" data-name="Path 181" d="M207.027,157.874a4.279,4.279,0,1,0,4.28,4.278A4.284,4.284,0,0,0,207.027,157.874Zm0,5.527a1.249,1.249,0,1,1,1.25-1.249A1.25,1.25,0,0,1,207.027,163.4Z" transform="translate(-167.212 -142.447)" fill="#d63d4a"/>
  <path id="Path_182" data-name="Path 182" d="M30.217,157.874a4.279,4.279,0,1,0,4.278,4.278A4.284,4.284,0,0,0,30.217,157.874Zm0,5.527a1.249,1.249,0,1,1,1.249-1.249A1.25,1.25,0,0,1,30.217,163.4Z" transform="translate(-21.392 -142.447)" fill="#d63d4a"/>
  <rect id="Rectangle_65" data-name="Rectangle 65" width="14.238" height="3.031" transform="translate(17.201 18.19)" fill="#d63d4a"/>
  <path id="Path_183" data-name="Path 183" d="M47.587,81.952l-1.313-1.86-2.87-2.05-6.473-.982-4.751-5.584-5.8-1.616h-9.84l-5.823,2L5.945,78.051l-2.9,2.812L.555,84.413,0,88.669l3,.39.459-3.516,1.9-2.7,2.848-2.765,4.353-5.641,4.484-1.543h8.917l4.508,1.255,4.882,5.739,6.876,1.045L44.1,82.259l.715,1.014.632,2.252v3.34h3.031V85.105Z" transform="translate(0 -69.859)" fill="#d63d4a"/>
</svg>