<svg xmlns="http://www.w3.org/2000/svg" width="21.609" height="21.635" viewBox="0 0 21.609 21.635">
  <g id="open-wrench-tool-silhouette_icon-icons.com_73472" transform="translate(-0.288)">
    <g id="Group_84" data-name="Group 84" transform="translate(0.288)">
      <path id="Path_227" data-name="Path 227" d="M9.756,181.586.788,190.553a1.635,1.635,0,0,0-.5,1.2,1.566,1.566,0,0,0,.5,1.185l1.4,1.422a1.686,1.686,0,0,0,1.2.487,1.613,1.613,0,0,0,1.185-.487l8.98-8.98a6.819,6.819,0,0,1-3.792-3.792ZM4.818,191.5a.827.827,0,1,1,.25-.593A.811.811,0,0,1,4.818,191.5Z" transform="translate(-0.288 -173.211)" fill="#747474"/>
      <path id="Path_228" data-name="Path 228" d="M225.225,6.11a.384.384,0,0,0-.309-.132,4.292,4.292,0,0,0-.928.468q-.81.467-1.784,1.067l-1.04.639-2.542-1.409V3.793l3.858-2.226a.428.428,0,0,0,0-.737,4.507,4.507,0,0,0-1.415-.612,6.363,6.363,0,0,0-1.6-.217A5.681,5.681,0,0,0,215.3,1.732,5.68,5.68,0,0,0,213.565,5.9a5.682,5.682,0,0,0,1.732,4.168,5.681,5.681,0,0,0,4.167,1.732,5.749,5.749,0,0,0,3.4-1.1,5.792,5.792,0,0,0,2.166-2.864,4.614,4.614,0,0,0,.3-1.4A.49.49,0,0,0,225.225,6.11Z" transform="translate(-203.728 0)" fill="#747474"/>
    </g>
  </g>
</svg>