<svg xmlns="http://www.w3.org/2000/svg" width="10.408" height="10.408" viewBox="0 0 10.408 10.408">
  <g id="phone-volume_icon-icons.com_56474" transform="translate(-0.012)">
    <path id="Path_229" data-name="Path 229" d="M9.414,9.518l-.69.69a1.284,1.284,0,0,1-.495.2A8.143,8.143,0,0,1,.013,2.173a1.287,1.287,0,0,1,.2-.474L.9,1.008A1.157,1.157,0,0,1,1.982.754L2.127.8a1.361,1.361,0,0,1,.788.833l.347,1.275A1.245,1.245,0,0,1,2.978,4l-.461.461A4.892,4.892,0,0,0,5.959,7.906l.461-.461a1.249,1.249,0,0,1,1.091-.285l1.275.348a1.361,1.361,0,0,1,.833.788l.048.145A1.157,1.157,0,0,1,9.414,9.518ZM5.866,5.2h.65a1.3,1.3,0,0,0-1.3-1.3v.65A.652.652,0,0,1,5.866,5.2Zm2.6,0A3.252,3.252,0,0,0,5.216,1.951V2.6a2.6,2.6,0,0,1,2.6,2.6ZM5.216,0V.65A4.559,4.559,0,0,1,9.769,5.2h.65A5.2,5.2,0,0,0,5.216,0Z" transform="translate(0)" fill="#d63d4a"/>
  </g>
</svg>