<svg xmlns="http://www.w3.org/2000/svg" width="182.981" height="182.981" viewBox="0 0 182.981 182.981">
  <g id="qr-code_icon-icons.com_69971" transform="translate(0.5 0.5)">
    <path id="Path_194" data-name="Path 194" d="M68.243,0H0V68.243H68.243ZM56.869,56.869h-45.5v-45.5h45.5Z" stroke="#707070" stroke-width="1"/>
    <path id="Path_195" data-name="Path 195" d="M2,2H24.748V24.748H2Z" transform="translate(20.748 20.748)" stroke="#707070" stroke-width="1"/>
    <path id="Path_196" data-name="Path 196" d="M0,78.243H68.243V10H0ZM11.374,21.374h45.5v45.5h-45.5Z" transform="translate(0 103.738)" stroke="#707070" stroke-width="1"/>
    <path id="Path_197" data-name="Path 197" d="M2,12H24.748V34.748H2Z" transform="translate(20.748 124.486)" stroke="#707070" stroke-width="1"/>
    <path id="Path_198" data-name="Path 198" d="M10,0V68.243H78.243V0ZM66.869,56.869h-45.5v-45.5h45.5Z" transform="translate(103.738)" stroke="#707070" stroke-width="1"/>
    <path id="Path_199" data-name="Path 199" d="M12,2H34.748V24.748H12Z" transform="translate(124.486 20.748)" stroke="#707070" stroke-width="1"/>
    <path id="Path_200" data-name="Path 200" d="M22.748,7H0V29.748H34.122V18.374H22.748Z" transform="translate(0 72.617)" stroke="#707070" stroke-width="1"/>
    <path id="Path_201" data-name="Path 201" d="M7,9H29.748V31.748H7Z" transform="translate(72.617 93.365)" stroke="#707070" stroke-width="1"/>
    <path id="Path_202" data-name="Path 202" d="M3,7H25.748V18.374H3Z" transform="translate(31.122 72.617)" stroke="#707070" stroke-width="1"/>
    <path id="Path_203" data-name="Path 203" d="M29.748,12H7V23.374H18.374V34.748H29.748V12Z" transform="translate(72.617 124.486)" stroke="#707070" stroke-width="1"/>
    <path id="Path_204" data-name="Path 204" d="M16.374,7V18.374H5V29.748H27.748V7Z" transform="translate(51.869 72.617)" stroke="#707070" stroke-width="1"/>
    <path id="Path_205" data-name="Path 205" d="M8,4H19.374V26.748H8Z" transform="translate(82.991 41.495)" stroke="#707070" stroke-width="1"/>
    <path id="Path_206" data-name="Path 206" d="M19.374,18.374V29.748H42.122V7H8V18.374Z" transform="translate(82.991 72.617)" stroke="#707070" stroke-width="1"/>
    <path id="Path_207" data-name="Path 207" d="M7,6H18.374V17.374H7Z" transform="translate(72.617 62.243)" stroke="#707070" stroke-width="1"/>
    <path id="Path_208" data-name="Path 208" d="M9,14H31.748V36.748H9Z" transform="translate(93.365 145.234)" stroke="#707070" stroke-width="1"/>
    <path id="Path_209" data-name="Path 209" d="M7,14H18.374V36.748H7Z" transform="translate(72.617 145.234)" stroke="#707070" stroke-width="1"/>
    <path id="Path_210" data-name="Path 210" d="M9,11H20.374V22.374H9Z" transform="translate(93.365 114.112)" stroke="#707070" stroke-width="1"/>
    <path id="Path_211" data-name="Path 211" d="M29.748,34.122V11.374H18.374V0H7V45.5H18.374V34.122Z" transform="translate(72.617)" stroke="#707070" stroke-width="1"/>
    <path id="Path_212" data-name="Path 212" d="M12,14H23.374V36.748H12Z" transform="translate(124.486 145.234)" stroke="#707070" stroke-width="1"/>
    <path id="Path_213" data-name="Path 213" d="M12,12H34.748V23.374H12Z" transform="translate(124.486 124.486)" stroke="#707070" stroke-width="1"/>
    <path id="Path_214" data-name="Path 214" d="M11,13H22.374V24.374H11Z" transform="translate(114.112 134.86)" stroke="#707070" stroke-width="1"/>
    <path id="Path_215" data-name="Path 215" d="M10,12H21.374V23.374H10Z" transform="translate(103.738 124.486)" stroke="#707070" stroke-width="1"/>
    <path id="Path_216" data-name="Path 216" d="M14,10V21.374H25.374V32.748H36.748V10H14Z" transform="translate(145.234 103.738)" stroke="#707070" stroke-width="1"/>
    <path id="Path_217" data-name="Path 217" d="M25.374,13H14V47.122H36.748V24.374H25.374Z" transform="translate(145.234 134.86)" stroke="#707070" stroke-width="1"/>
    <path id="Path_218" data-name="Path 218" d="M10,20.374V31.748H44.122V9H21.374V20.374Z" transform="translate(103.738 93.365)" stroke="#707070" stroke-width="1"/>
    <path id="Path_219" data-name="Path 219" d="M12,7V18.374H34.748V29.748H57.5V7H12Z" transform="translate(124.486 72.617)" stroke="#707070" stroke-width="1"/>
  </g>
</svg>