<svg xmlns="http://www.w3.org/2000/svg" width="40" height="30" viewBox="0 0 40 30">
  <g id="rdt_result_mixed_rapid_diagnostic_test_icon_209142" transform="translate(-4 -9)">
    <path id="Path_153" data-name="Path 153" d="M10.851,11.1a1.207,1.207,0,0,1,.742-.079,1.3,1.3,0,0,1,.678.39,1,1,0,1,0,1.459-1.368,3.3,3.3,0,0,0-1.722-.979,3.207,3.207,0,0,0-1.966.206,3.383,3.383,0,0,0-1.495,1.3,3.64,3.64,0,0,0,0,3.839,3.383,3.383,0,0,0,1.495,1.3,3.208,3.208,0,0,0,1.966.206,3.3,3.3,0,0,0,1.722-.979,1,1,0,1,0-1.459-1.368,1.3,1.3,0,0,1-.678.39,1.207,1.207,0,0,1-.742-.079,1.384,1.384,0,0,1-.608-.537,1.64,1.64,0,0,1,0-1.716A1.384,1.384,0,0,1,10.851,11.1Z" fill="#d63d4a"/>
    <path id="Path_154" data-name="Path 154" d="M11,23h2v2H11a1,1,0,0,1,0-2Z" fill="#d63d4a"/>
    <path id="Path_155" data-name="Path 155" d="M22,25H20V23h2Z" fill="#d63d4a"/>
    <path id="Path_156" data-name="Path 156" d="M15,23h3v2H15Z" fill="#d63d4a"/>
    <path id="Path_157" data-name="Path 157" d="M24,25h2a1,1,0,0,0,0-2H24Z" fill="#d63d4a"/>
    <path id="Path_158" data-name="Path 158" d="M4,24a6,6,0,0,0,6,6H38a6,6,0,0,0,0-12H10A6,6,0,0,0,4,24Zm36,0a2,2,0,1,0-2,2A2,2,0,0,0,40,24Zm-7.5,1.5A1.5,1.5,0,1,1,34,24,1.5,1.5,0,0,1,32.5,25.5ZM11,27a3,3,0,0,1,0-6H26a3,3,0,0,1,0,6Z" fill="#d63d4a" fill-rule="evenodd"/>
    <path id="Path_159" data-name="Path 159" d="M13,33a1,1,0,0,1,1-1h2.5a2.5,2.5,0,0,1,0,5H15v1a1,1,0,0,1-2,0Zm2,2h1.5a.5.5,0,0,0,0-1H15Z" fill="#d63d4a" fill-rule="evenodd"/>
    <path id="Path_160" data-name="Path 160" d="M28,9a1,1,0,0,0-1,1v5a1,1,0,0,0,2,0V14h1.5a2.5,2.5,0,0,0,0-5Zm2.5,3H29V11h1.5a.5.5,0,0,1,0,1Z" fill="#d63d4a" fill-rule="evenodd"/>
    <path id="Path_161" data-name="Path 161" d="M22.5,39a1,1,0,0,0,.936-.649l1.5-4a1,1,0,0,0-1.873-.7l-.564,1.5-.564-1.5a1,1,0,0,0-1.873.7l1.5,4A1,1,0,0,0,22.5,39Z" fill="#d63d4a"/>
    <path id="Path_162" data-name="Path 162" d="M35,16a1,1,0,0,0,1-1V13a1,1,0,0,0,0-2,1,1,0,0,0,0-2,1.924,1.924,0,0,0-1.611.791A2.116,2.116,0,0,0,34,11a1,1,0,0,0,0,2v2A1,1,0,0,0,35,16Z" fill="#d63d4a"/>
  </g>
</svg>
