<svg xmlns="http://www.w3.org/2000/svg" width="25.788" height="25.788" viewBox="0 0 25.788 25.788">
  <g id="save-file-option_icon-icons.com_73423" transform="translate(-0.003)">
    <path id="Path_245" data-name="Path 245" d="M25.455,7.118a3.9,3.9,0,0,0-.806-1.276l-4.7-4.7A3.909,3.909,0,0,0,18.672.336,3.875,3.875,0,0,0,17.2,0H1.615A1.554,1.554,0,0,0,.473.47,1.554,1.554,0,0,0,0,1.612V24.177a1.554,1.554,0,0,0,.47,1.142,1.555,1.555,0,0,0,1.142.47H24.18a1.6,1.6,0,0,0,1.612-1.612V8.6A3.878,3.878,0,0,0,25.455,7.118ZM10.748,2.686a.544.544,0,0,1,.537-.537h3.224a.545.545,0,0,1,.537.537V8.059a.545.545,0,0,1-.537.537H11.285a.544.544,0,0,1-.537-.537V2.686Zm8.6,20.953H6.45V17.192H19.344Zm4.3,0h-2.15V16.655a1.6,1.6,0,0,0-1.611-1.612H5.913A1.6,1.6,0,0,0,4.3,16.655v6.985H2.152V2.149H4.3V9.133a1.6,1.6,0,0,0,1.612,1.612h9.671A1.6,1.6,0,0,0,17.2,9.133V2.149a1.809,1.809,0,0,1,.655.168,1.809,1.809,0,0,1,.571.336L23.139,7.37a1.808,1.808,0,0,1,.336.579,1.849,1.849,0,0,1,.168.647V23.639Z" transform="translate(0 0)" fill="#fff"/>
  </g>
</svg>