<svg xmlns="http://www.w3.org/2000/svg" width="26.958" height="31.369" viewBox="0 0 26.958 31.369">
  <path id="Path_251" data-name="Path 251" d="M22.451,8A2.458,2.458,0,0,0,20,10.451V36.918a2.458,2.458,0,0,0,2.451,2.451h14.7a2.458,2.458,0,0,0,2.451-2.451V29.076h-.98v4.411H20.98V12.9H38.625v1.961h.98V10.451A2.458,2.458,0,0,0,37.155,8Zm0,.98h14.7a1.463,1.463,0,0,1,1.47,1.47v1.47H20.98v-1.47A1.463,1.463,0,0,1,22.451,8.98Zm5.392.98a.49.49,0,1,0,0,.98h3.921a.49.49,0,1,0,0-.98Zm-1.985,0a.49.49,0,0,0,0,.98A.48.48,0,0,0,26.2,10.8a.49.49,0,0,0-.345-.839Zm-2.916,3.921a.49.49,0,1,0,.49.49A.491.491,0,0,0,22.941,13.882Zm0,1.961a.49.49,0,1,0,.49.49A.491.491,0,0,0,22.941,15.842Zm6.862,0A1.967,1.967,0,0,0,27.842,17.8v8.332A1.967,1.967,0,0,0,29.8,28.1h2.451v3.144L35.4,28.1H45a1.967,1.967,0,0,0,1.961-1.961V17.8A1.967,1.967,0,0,0,45,15.842Zm0,.98H45a.972.972,0,0,1,.98.98v8.332a.972.972,0,0,1-.98.98H34.991l-1.758,1.758V27.115H29.8a.972.972,0,0,1-.98-.98V17.8A.972.972,0,0,1,29.8,16.822Zm-6.862.98a.49.49,0,1,0,.49.49A.491.491,0,0,0,22.941,17.8Zm0,1.961a.49.49,0,1,0,.49.49A.491.491,0,0,0,22.941,19.763Zm10.783,1.47a.98.98,0,1,0,.98.98A.98.98,0,0,0,33.724,21.234Zm3.921,0a.98.98,0,1,0,.98.98A.98.98,0,0,0,37.645,21.234Zm3.921,0a.98.98,0,1,0,.98.98A.98.98,0,0,0,41.566,21.234Zm-18.625.49a.49.49,0,1,0,.49.49A.491.491,0,0,0,22.941,21.724Zm0,1.961a.49.49,0,1,0,.49.49A.491.491,0,0,0,22.941,23.684Zm0,1.961a.49.49,0,1,0,.49.49A.491.491,0,0,0,22.941,25.645Zm0,1.961a.49.49,0,1,0,.49.49A.491.491,0,0,0,22.941,27.605Zm0,1.961a.49.49,0,1,0,.49.49A.491.491,0,0,0,22.941,29.566Zm0,1.961a.49.49,0,1,0,.49.49A.491.491,0,0,0,22.941,31.527ZM20.98,34.467H38.625v2.451a1.463,1.463,0,0,1-1.47,1.47h-14.7a1.463,1.463,0,0,1-1.47-1.47Zm8.822.98a.98.98,0,1,0,.98.98A.98.98,0,0,0,29.8,35.448Z" transform="translate(-20 -8)" fill="#fff"/>
</svg>