<svg xmlns="http://www.w3.org/2000/svg" width="25.467" height="25.469" viewBox="0 0 25.467 25.469">
  <g id="Settings" transform="translate(-1772.829 -46.762)">
    <path id="Path_135" data-name="Path 135" d="M159.247,96.957a3.692,3.692,0,0,0-5.484,4.058,3.692,3.692,0,1,0,5.484-4.058Zm-.259,4.152a1.917,1.917,0,1,1,.216-1.45A1.905,1.905,0,0,1,158.988,101.108Z" transform="translate(1628.217 -40.627)" fill="#747474"/>
    <path id="Path_136" data-name="Path 136" d="M136.326,68.648a2.758,2.758,0,0,0-1.335-5.351l-.411.1a10.113,10.113,0,0,0-1.458-1.969l.22-.365a2.758,2.758,0,1,0-4.728-2.84l-.219.365a10.135,10.135,0,0,0-2.422-.363l-.1-.413a2.758,2.758,0,0,0-5.351,1.335l.1.412a10.127,10.127,0,0,0-1.968,1.458l-.364-.219a2.758,2.758,0,1,0-2.84,4.728l.364.219a10.049,10.049,0,0,0-.363,2.423l-.413.1a2.758,2.758,0,0,0,1.335,5.351l.412-.1a10.083,10.083,0,0,0,1.457,1.969l-.22.365a2.758,2.758,0,1,0,4.728,2.84l.219-.364a10.135,10.135,0,0,0,2.423.363l.1.412a2.76,2.76,0,0,0,2.669,2.089,2.781,2.781,0,0,0,.672-.083,2.751,2.751,0,0,0,2.009-3.34l-.1-.412A10.113,10.113,0,0,0,132.71,75.9l.365.219a2.758,2.758,0,1,0,2.839-4.728l-.364-.219a10.047,10.047,0,0,0,.363-2.423ZM134.8,67.2a.888.888,0,0,0-.672.9,8.358,8.358,0,0,1-.476,3.181.888.888,0,0,0,.38,1.059l.965.579A.981.981,0,0,1,133.99,74.6l-.965-.58a.89.89,0,0,0-1.112.162,8.375,8.375,0,0,1-2.584,1.913.889.889,0,0,0-.481,1.017l.272,1.091a.981.981,0,0,1-1.9.474l-.272-1.091a.89.89,0,0,0-.862-.673h-.039a8.353,8.353,0,0,1-3.181-.476.889.889,0,0,0-1.058.38l-.579.964a.981.981,0,0,1-1.681-1.01l.579-.964a.888.888,0,0,0-.161-1.113,8.388,8.388,0,0,1-1.915-2.586.886.886,0,0,0-1.017-.48l-1.09.272a.981.981,0,0,1-.475-1.9l1.091-.272a.888.888,0,0,0,.672-.9,8.351,8.351,0,0,1,.476-3.18.889.889,0,0,0-.38-1.059l-.965-.58a.981.981,0,0,1,1.011-1.681l.965.579a.886.886,0,0,0,1.112-.162,8.375,8.375,0,0,1,2.584-1.914.887.887,0,0,0,.48-1.017l-.272-1.091a.981.981,0,0,1,1.9-.475l.272,1.091a.9.9,0,0,0,.9.673,8.339,8.339,0,0,1,3.18.476.888.888,0,0,0,1.058-.38l.579-.965a.981.981,0,0,1,1.681,1.01l-.579.964a.888.888,0,0,0,.161,1.113,8.39,8.39,0,0,1,1.915,2.586.887.887,0,0,0,1.017.48l1.091-.272a.969.969,0,0,1,1.186.715.98.98,0,0,1-.711,1.188Z" transform="translate(1659.882 -8.963)"/>
  </g>
</svg>