<svg xmlns="http://www.w3.org/2000/svg" width="121.153" height="121.5" viewBox="0 0 121.153 121.5">
  <g id="message_text_icon_243954" transform="translate(0.75 0.75)">
    <path id="Path_189" data-name="Path 189" d="M2,36.7Q2,2,36.7,2H82.957q34.7,0,34.7,34.7V65.609q0,34.7-34.7,34.7H80.066a5.862,5.862,0,0,0-4.626,2.313l-8.674,11.565c-3.817,5.089-10.062,5.089-13.878,0l-8.674-11.565a6.536,6.536,0,0,0-4.626-2.313H36.7c-23.131,0-34.7-5.783-34.7-34.7V59.827" fill="none" stroke="#fff" stroke-linecap="round" stroke-linejoin="round" stroke-miterlimit="10" stroke-width="5.5"/>
    <path id="Path_190" data-name="Path 190" d="M15.99,8h5.84" transform="translate(66.91 28.696)" fill="none" stroke="#fff" stroke-linecap="round" stroke-linejoin="round" stroke-width="5.5"/>
    <path id="Path_191" data-name="Path 191" d="M7,8H38.862" transform="translate(23.913 28.696)" fill="none" stroke="#fff" stroke-linecap="round" stroke-linejoin="round" stroke-width="5.5"/>
    <path id="Path_192" data-name="Path 192" d="M7,13H41.7" transform="translate(23.913 52.609)" fill="none" stroke="#fff" stroke-linecap="round" stroke-linejoin="round" stroke-width="5.5"/>
  </g>
</svg>