<svg xmlns="http://www.w3.org/2000/svg" width="39.08" height="26.334" viewBox="0 0 39.08 26.334">
  <path id="top_speed_filled_icon_200128" d="M2.079,19.224C5.184,10.993,12.051,5,21.54,5h0a20.366,20.366,0,0,1,6.726,1.106,3.659,3.659,0,0,0-.431.517L26.757,8.187a17.78,17.78,0,0,0-4-.707v6.068a1.221,1.221,0,0,1-2.442,0V7.481A17.231,17.231,0,0,0,7.363,14.561a1.224,1.224,0,0,1,.255.147l3.664,2.748A1.221,1.221,0,1,1,9.816,19.41L6.152,16.663a1.233,1.233,0,0,1-.117-.1,23.239,23.239,0,0,0-1.671,3.523,1.221,1.221,0,0,1-2.285-.862Zm32.228-9.3q.053-.15.092-.3A23.209,23.209,0,0,1,41,19.224a1.221,1.221,0,0,1-2.285.862,23.231,23.231,0,0,0-1.671-3.523,1.207,1.207,0,0,1-.117.1L33.263,19.41A1.221,1.221,0,0,1,31.8,17.456l3.664-2.748a1.227,1.227,0,0,1,.255-.147,19.02,19.02,0,0,0-2.184-2.446ZM31.365,7.613a1.221,1.221,0,0,1,.6,1.493L25.522,27.5a8.1,8.1,0,0,1-1.32,2.383A3.8,3.8,0,0,1,17.631,26.3a8.111,8.111,0,0,1,1.008-2.026L29.806,8.01A1.221,1.221,0,0,1,31.365,7.613Z" transform="translate(-2 -5)" fill="#d63d4a"/>
</svg>