<svg xmlns="http://www.w3.org/2000/svg" width="38.807" height="33.216" viewBox="0 0 38.807 33.216">
  <path id="car_cog_icon_136821" d="M9.839,5A2.928,2.928,0,0,0,7.064,6.954L3,18.677V34.308a1.954,1.954,0,0,0,1.954,1.954H6.908a1.954,1.954,0,0,0,1.954-1.954V32.355H19.217a13.577,13.577,0,0,1,6.077-15.631H6.908L9.839,7.931H31.331l2.306,6.9a13.677,13.677,0,0,1,3.5.84L34.106,6.954A2.928,2.928,0,0,0,31.331,5H9.839M30.355,18.677a.507.507,0,0,0-.508.41l-.371,2.579a9.758,9.758,0,0,0-1.661.918l-2.423-.977c-.215,0-.469,0-.606.254l-1.954,3.38a.484.484,0,0,0,.117.625l2.071,1.6a8.17,8.17,0,0,0,0,1.954l-2.071,1.6a.507.507,0,0,0-.117.625l1.954,3.38c.117.254.371.254.606.254l2.423-.977a8.038,8.038,0,0,0,1.661.918l.371,2.579a.492.492,0,0,0,.508.41h3.908a.5.5,0,0,0,.469-.41l.371-2.579a10.375,10.375,0,0,0,1.641-.918l2.4.977c.254,0,.508,0,.645-.254l1.954-3.38a.507.507,0,0,0-.117-.625l-2.091-1.6a8.227,8.227,0,0,0,.078-.977,5.491,5.491,0,0,0-.078-.977l2.071-1.6a.507.507,0,0,0,.117-.625l-1.954-3.38c-.117-.254-.371-.254-.625-.254l-2.4.977a8.576,8.576,0,0,0-1.661-.918l-.371-2.579a.462.462,0,0,0-.449-.41H30.355M9.839,20.631a2.931,2.931,0,1,1-2.931,2.931,2.931,2.931,0,0,1,2.931-2.931m22.47,4.885a2.931,2.931,0,1,1-2.931,2.931A2.927,2.927,0,0,1,32.308,25.516Z" transform="translate(-3 -5)" fill="#d63d4a"/>
</svg>