<svg xmlns="http://www.w3.org/2000/svg" width="28.202" height="26.47" viewBox="0 0 28.202 26.47">
  <g id="settingsoptions_102259" transform="translate(0 0)">
    <path id="Path_82" data-name="Path 82" d="M69.149,41.538a.762.762,0,1,0,.169,1.065A.759.759,0,0,0,69.149,41.538Z" transform="translate(-59.521 -36.264)" fill="none"/>
    <path id="Path_83" data-name="Path 83" d="M19.4,115.09h-.6a.5.5,0,0,1-.486-.4,4.4,4.4,0,0,0-.649-1.567.5.5,0,0,1,.063-.624l.422-.422a.5.5,0,0,0-.351-.846h0a.489.489,0,0,0-.348.145l-.423.422a.5.5,0,0,1-.624.062,4.421,4.421,0,0,0-1.567-.649.5.5,0,0,1-.4-.486v-.6a.5.5,0,0,0-.5-.494.49.49,0,0,0-.5.494v.6a.5.5,0,0,1-.4.486,4.421,4.421,0,0,0-1.567.649.5.5,0,0,1-.624-.062l-.422-.422a.5.5,0,0,0-.846.352.489.489,0,0,0,.145.349l.422.423a.5.5,0,0,1,.063.624,4.416,4.416,0,0,0-.649,1.567.5.5,0,0,1-.486.4h-.6a.5.5,0,0,0,0,.991h.6a.5.5,0,0,1,.486.4,4.416,4.416,0,0,0,.649,1.567.5.5,0,0,1-.063.624l-.422.422a.5.5,0,0,0,.351.846h0a.492.492,0,0,0,.349-.145l.422-.422a.5.5,0,0,1,.624-.062,4.421,4.421,0,0,0,1.567.649.5.5,0,0,1,.4.486v.6a.5.5,0,0,0,.5.494.49.49,0,0,0,.5-.494v-.6a.5.5,0,0,1,.4-.486,4.421,4.421,0,0,0,1.567-.649.5.5,0,0,1,.624.062l.422.422a.5.5,0,0,0,.846-.352.489.489,0,0,0-.145-.349l-.422-.422a.5.5,0,0,1-.063-.624,4.4,4.4,0,0,0,.649-1.567.5.5,0,0,1,.486-.4h.6a.5.5,0,0,0,0-.991Zm-5.453,2.478a1.982,1.982,0,1,1,1.982-1.982A1.985,1.985,0,0,1,13.947,117.568Z" transform="translate(-7.009 -96.054)" fill="none"/>
    <path id="Path_84" data-name="Path 84" d="M48.991,149.638a.991.991,0,1,0,.991.991A.992.992,0,0,0,48.991,149.638Z" transform="translate(-42.053 -131.098)" fill="none"/>
    <path id="Path_85" data-name="Path 85" d="M43.146,13.063a.5.5,0,0,1,.418-.468l.5-.079a.339.339,0,0,0,.223-.137.343.343,0,0,0,.061-.255.337.337,0,0,0-.392-.286l-.5.079a.5.5,0,0,1-.542-.316,3.664,3.664,0,0,0-.735-1.2.5.5,0,0,1-.036-.626l.3-.408a.343.343,0,1,0-.554-.4l-.3.408a.494.494,0,0,1-.606.159A3.661,3.661,0,0,0,39.615,9.2a.5.5,0,0,1-.468-.418l-.079-.5a.343.343,0,0,0-.678.107l.079.5a.5.5,0,0,1-.316.542,3.66,3.66,0,0,0-1.2.734.5.5,0,0,1-.626.036l-.408-.3a.343.343,0,1,0-.4.555l.408.3a.5.5,0,0,1,.159.607,3.649,3.649,0,0,0-.328,1.367.5.5,0,0,1-.418.468l-.5.079a.343.343,0,0,0-.284.393.336.336,0,0,0,.391.285l.5-.079a.5.5,0,0,1,.542.317,3.655,3.655,0,0,0,.735,1.2.5.5,0,0,1,.035.626l-.3.408a.343.343,0,0,0,.077.478.339.339,0,0,0,.479-.075l.3-.408a.5.5,0,0,1,.606-.159,3.668,3.668,0,0,0,1.367.328.5.5,0,0,1,.468.417l.079.5a.343.343,0,0,0,.678-.107l-.079-.5a.5.5,0,0,1,.316-.542,3.668,3.668,0,0,0,1.2-.734.5.5,0,0,1,.626-.036l.408.3a.346.346,0,0,0,.254.061.343.343,0,0,0,.15-.616l-.408-.3a.5.5,0,0,1-.16-.606A3.657,3.657,0,0,0,43.146,13.063Zm-2.276.866h0a1.754,1.754,0,1,1-.388-2.449A1.753,1.753,0,0,1,40.87,13.929Z" transform="translate(-30.271 -7.008)" fill="none"/>
    <path id="Path_86" data-name="Path 86" d="M163.277,104.584a1.061,1.061,0,0,0-.548-.153,1.074,1.074,0,0,0-.26.032,1.068,1.068,0,1,0,.808.121Z" transform="translate(-141.629 -91.491)" fill="none"/>
    <path id="Path_87" data-name="Path 87" d="M133.159,68.321a.541.541,0,0,0-.662-.4l-.608.152a.5.5,0,0,1-.567-.268,4.68,4.68,0,0,0-1.068-1.442.5.5,0,0,1-.09-.621l.323-.538a.547.547,0,1,0-.938-.564l-.323.538a.5.5,0,0,1-.59.212,4.653,4.653,0,0,0-1.774-.266.5.5,0,0,1-.5-.375l-.152-.609a.547.547,0,0,0-1.062.265l.152.608a.5.5,0,0,1-.268.567,4.672,4.672,0,0,0-1.442,1.067.5.5,0,0,1-.621.09l-.538-.323a.547.547,0,1,0-.564.938l.538.323a.5.5,0,0,1,.212.591,4.658,4.658,0,0,0-.266,1.774.5.5,0,0,1-.375.5l-.609.152a.547.547,0,0,0,.265,1.062l.608-.152a.494.494,0,0,1,.567.268,4.679,4.679,0,0,0,1.068,1.442.5.5,0,0,1,.09.621l-.323.538a.547.547,0,1,0,.938.564l.323-.538a.5.5,0,0,1,.59-.212,4.66,4.66,0,0,0,1.775.266h.022a.5.5,0,0,1,.481.376l.152.609a.547.547,0,1,0,1.062-.265l-.152-.609a.5.5,0,0,1,.268-.567,4.672,4.672,0,0,0,1.442-1.067.5.5,0,0,1,.62-.09l.538.323a.547.547,0,0,0,.749-.188.544.544,0,0,0-.185-.75L131.724,72a.5.5,0,0,1-.212-.591,4.662,4.662,0,0,0,.266-1.774.5.5,0,0,1,.375-.5l.609-.152A.547.547,0,0,0,133.159,68.321Zm-5.6,3.518a2.059,2.059,0,1,1,1.5-2.5A2.054,2.054,0,0,1,127.561,71.839Z" transform="translate(-105.965 -55.832)" fill="none"/>
    <path id="Path_88" data-name="Path 88" d="M41.982,141.638a1.982,1.982,0,1,0,1.982,1.982A1.985,1.985,0,0,0,41.982,141.638Zm0,2.974a.991.991,0,1,1,.991-.991A.992.992,0,0,1,41.982,144.612Z" transform="translate(-35.044 -124.089)" fill="#9a9a9a"/>
    <path id="Path_89" data-name="Path 89" d="M12.391,107.09h-.207a5.375,5.375,0,0,0-.486-1.172l.147-.146a1.488,1.488,0,0,0-1.052-2.538h0a1.475,1.475,0,0,0-1.049.436l-.147.147a5.375,5.375,0,0,0-1.171-.486v-.207a1.487,1.487,0,0,0-2.974,0v.207a5.375,5.375,0,0,0-1.171.486l-.147-.146a1.487,1.487,0,1,0-2.1,2.1l.146.147a5.4,5.4,0,0,0-.485,1.172H1.485a1.487,1.487,0,0,0,0,2.974h.207a5.4,5.4,0,0,0,.485,1.172l-.146.146a1.488,1.488,0,0,0,1.052,2.538h0a1.476,1.476,0,0,0,1.049-.436l.147-.147a5.375,5.375,0,0,0,1.171.486v.207a1.487,1.487,0,0,0,2.974,0v-.207a5.376,5.376,0,0,0,1.171-.486l.147.146a1.487,1.487,0,1,0,2.1-2.1l-.147-.146a5.375,5.375,0,0,0,.486-1.172h.207a1.487,1.487,0,0,0,0-2.974Zm0,1.982h-.6a.5.5,0,0,0-.486.4,4.4,4.4,0,0,1-.649,1.567.5.5,0,0,0,.063.624l.422.422a.493.493,0,0,1,0,.7.5.5,0,0,1-.7,0l-.422-.422A.5.5,0,0,0,9.4,112.3a4.421,4.421,0,0,1-1.567.649.5.5,0,0,0-.4.486v.6a.49.49,0,0,1-.5.494.5.5,0,0,1-.5-.494v-.6a.5.5,0,0,0-.4-.486,4.421,4.421,0,0,1-1.567-.649.5.5,0,0,0-.624.062l-.422.422a.492.492,0,0,1-.349.145h0a.5.5,0,0,1-.351-.846l.422-.422a.5.5,0,0,0,.063-.624,4.416,4.416,0,0,1-.649-1.567.5.5,0,0,0-.486-.4h-.6a.5.5,0,0,1,0-.991h.6a.5.5,0,0,0,.486-.4,4.416,4.416,0,0,1,.649-1.567.5.5,0,0,0-.063-.624l-.422-.423a.493.493,0,0,1,0-.7.5.5,0,0,1,.7,0l.422.422a.5.5,0,0,0,.624.062,4.421,4.421,0,0,1,1.567-.649.5.5,0,0,0,.4-.486v-.6a.49.49,0,0,1,.5-.494.5.5,0,0,1,.5.494v.6a.5.5,0,0,0,.4.486,4.421,4.421,0,0,1,1.567.649.5.5,0,0,0,.624-.062l.423-.422a.489.489,0,0,1,.348-.145h0a.5.5,0,0,1,.351.846l-.422.422a.5.5,0,0,0-.063.624,4.4,4.4,0,0,1,.649,1.567.5.5,0,0,0,.486.4h.6a.5.5,0,0,1,0,.991Z" transform="translate(0 -89.045)" fill="#9a9a9a"/>
    <path id="Path_90" data-name="Path 90" d="M156.774,96.723a2.06,2.06,0,0,0-3.059,2.264,2.06,2.06,0,1,0,3.059-2.264Zm-.145,2.316a1.069,1.069,0,1,1-1.174-1.587,1.074,1.074,0,0,1,.26-.032,1.069,1.069,0,0,1,.914,1.619Z" transform="translate(-134.615 -84.48)" fill="#9a9a9a"/>
    <path id="Path_91" data-name="Path 91" d="M125.99,62.934a1.538,1.538,0,0,0-.745-2.985l-.229.057a5.642,5.642,0,0,0-.814-1.1l.122-.2a1.539,1.539,0,1,0-2.638-1.585l-.122.2a5.654,5.654,0,0,0-1.351-.2l-.058-.23a1.538,1.538,0,0,0-2.985.745l.057.23a5.65,5.65,0,0,0-1.1.813l-.2-.122a1.538,1.538,0,1,0-1.585,2.637l.2.122a5.606,5.606,0,0,0-.2,1.352l-.23.058a1.538,1.538,0,0,0,.745,2.985l.23-.057a5.625,5.625,0,0,0,.813,1.1l-.122.2a1.538,1.538,0,1,0,2.638,1.584l.122-.2a5.654,5.654,0,0,0,1.352.2l.057.23a1.54,1.54,0,0,0,1.489,1.165,1.552,1.552,0,0,0,.375-.046,1.535,1.535,0,0,0,1.121-1.863l-.058-.23a5.642,5.642,0,0,0,1.1-.813l.2.122a1.538,1.538,0,1,0,1.584-2.638l-.2-.122a5.6,5.6,0,0,0,.2-1.352Zm-.849-.81a.5.5,0,0,0-.375.5A4.662,4.662,0,0,1,124.5,64.4a.5.5,0,0,0,.212.591l.538.323a.547.547,0,0,1-.564.938l-.538-.323a.5.5,0,0,0-.62.09,4.672,4.672,0,0,1-1.442,1.067.5.5,0,0,0-.268.567l.152.609a.547.547,0,0,1-1.062.265l-.152-.609a.5.5,0,0,0-.481-.376h-.022a4.66,4.66,0,0,1-1.775-.266.5.5,0,0,0-.59.212l-.323.538a.547.547,0,0,1-.938-.564l.323-.538a.5.5,0,0,0-.09-.621,4.679,4.679,0,0,1-1.068-1.442.494.494,0,0,0-.567-.268l-.608.152a.547.547,0,0,1-.265-1.062l.609-.152a.5.5,0,0,0,.375-.5,4.658,4.658,0,0,1,.266-1.774.5.5,0,0,0-.212-.591l-.538-.323a.547.547,0,0,1,.564-.938l.538.323a.5.5,0,0,0,.62-.09,4.672,4.672,0,0,1,1.442-1.067.5.5,0,0,0,.268-.567l-.152-.608a.547.547,0,0,1,1.062-.265l.152.609a.5.5,0,0,0,.5.375,4.653,4.653,0,0,1,1.774.266.5.5,0,0,0,.59-.212l.323-.538a.547.547,0,0,1,.938.564l-.323.538a.5.5,0,0,0,.09.621,4.681,4.681,0,0,1,1.068,1.442.5.5,0,0,0,.567.268l.608-.152a.541.541,0,0,1,.662.4.547.547,0,0,1-.4.663Z" transform="translate(-98.953 -48.821)" fill="#9a9a9a"/>
    <path id="Path_92" data-name="Path 92" d="M62.722,33.729a1.753,1.753,0,1,0,.388,2.449h0A1.756,1.756,0,0,0,62.722,33.729ZM62.308,35.6a.764.764,0,0,1-1.065.169.762.762,0,0,1,.9-1.234A.764.764,0,0,1,62.308,35.6Z" transform="translate(-52.511 -29.257)" fill="#9a9a9a"/>
    <path id="Path_93" data-name="Path 93" d="M37.491,8.392a1.324,1.324,0,0,0-.533-.869l-.095-.069a4.673,4.673,0,0,0,.227-.949l.116-.018a1.334,1.334,0,0,0-.417-2.636l-.116.018a4.653,4.653,0,0,0-.51-.832l.069-.095a1.334,1.334,0,1,0-2.158-1.569l-.069.1a4.635,4.635,0,0,0-.95-.227l-.018-.117a1.335,1.335,0,0,0-2.4-.574,1.321,1.321,0,0,0-.237.991l.018.116a4.64,4.64,0,0,0-.832.51l-.1-.069a1.334,1.334,0,1,0-1.569,2.159l.1.069a4.625,4.625,0,0,0-.227.949l-.117.018a1.334,1.334,0,0,0,.417,2.636l.117-.019a4.632,4.632,0,0,0,.51.832l-.069.1a1.334,1.334,0,0,0,2.159,1.569l.069-.1a4.639,4.639,0,0,0,.949.228l.019.116a1.333,1.333,0,0,0,1.314,1.125,1.362,1.362,0,0,0,.212-.017A1.335,1.335,0,0,0,34.48,10.24l-.018-.116a4.65,4.65,0,0,0,.832-.51l.095.069a1.335,1.335,0,0,0,2.1-1.29Zm-1.524-.363.408.3a.343.343,0,0,1-.4.555l-.408-.3a.5.5,0,0,0-.626.036,3.668,3.668,0,0,1-1.2.734.5.5,0,0,0-.316.542l.079.5a.343.343,0,0,1-.678.107l-.079-.5a.5.5,0,0,0-.468-.417,3.668,3.668,0,0,1-1.367-.328.5.5,0,0,0-.606.159l-.3.408a.339.339,0,0,1-.479.075.343.343,0,0,1-.077-.478l.3-.408a.5.5,0,0,0-.035-.626,3.655,3.655,0,0,1-.735-1.2.5.5,0,0,0-.542-.317l-.5.079a.336.336,0,0,1-.391-.285.343.343,0,0,1,.284-.393l.5-.079a.5.5,0,0,0,.418-.468,3.649,3.649,0,0,1,.328-1.367.5.5,0,0,0-.159-.607l-.408-.3a.34.34,0,0,1-.075-.478.344.344,0,0,1,.478-.077l.408.3a.5.5,0,0,0,.626-.036,3.66,3.66,0,0,1,1.2-.734.5.5,0,0,0,.316-.542l-.079-.5a.343.343,0,0,1,.678-.107l.079.5a.5.5,0,0,0,.468.418,3.661,3.661,0,0,1,1.367.328.494.494,0,0,0,.606-.159l.3-.408a.34.34,0,0,1,.478-.075.342.342,0,0,1,.076.478l-.3.408a.5.5,0,0,0,.036.626,3.664,3.664,0,0,1,.735,1.2.5.5,0,0,0,.542.316l.5-.079a.337.337,0,0,1,.392.286.343.343,0,0,1-.061.255.339.339,0,0,1-.223.137l-.5.079a.5.5,0,0,0-.418.468,3.656,3.656,0,0,1-.328,1.368A.5.5,0,0,0,35.967,8.029Z" transform="translate(-23.261)" fill="#9a9a9a"/>
  </g>
</svg>