<svg id="Layer_1" enable-background="new 0 0 74 74" fill="#b21d27d3" height="45" viewBox="0 0 74 74" width="45" xmlns="http://www.w3.org/2000/svg">
<g><g><path d="m18.11 9.96h2.36c.41 0 .75-.34.75-.75s-.34-.75-.75-.75h-2.36c-.41 0-.75.34-.75.75s.34.75.75.75z"/>
<path d="m17.52 47.88h3.54c.41 0 .75-.34.75-.75s-.34-.75-.75-.75h-3.54c-.41 0-.75.34-.75.75s.33.75.75.75z"/>
<path d="m68.75 55.54c-2.27-2.27-3.54-3.54-5.82-5.81-.02-.02-.19-.23-.53-.22h-8.75l-10.69-9.96c-.14-.13-.32-.2-.51-.2h-8.89v-31.58c0-1.39-1.13-2.52-2.52-2.52h-23.49c-1.39 0-2.52 1.13-2.52 2.52v41.79c0 1.39 1.13 2.53 2.52 2.53h3.08v7.17c0 .2.08.39.22.53l1.35 1.35c.75.75 1.42 1.42 2.36 2.36.14.14.33.22.53.22h1.05c.37 2.83 2.79 5.03 5.72 5.03s5.35-2.2 5.72-5.03h21.98c.37 2.83 2.79 5.03 5.72 5.03s5.35-2.2 5.72-5.03h3.52c.2 0 .39-.08.53-.22 0 0 2.76-2.75 3.71-3.71.14-.14.22-.33.22-.53v-3.19c-.01-.29-.17-.46-.23-.53zm-5.76-3.63c1.23 1.22 2.22 2.21 3.42 3.41h-2.99c-.2 0-.38-.08-.52-.23-.13-.15-.2-.34-.18-.54zm-29.44-7.28h6.01l6.42 5.97-12.66-.01c.14-.32.22-.66.22-1.03v-4.93zm-27.02 4.93v-41.79c0-.56.46-1.02 1.02-1.02h23.47c.56 0 1.02.46 1.02 1.02v41.79c0 .57-.46 1.03-1.02 1.03h-23.47c-.56 0-1.02-.46-1.02-1.03zm15.33 17.69c-2.35 0-4.27-1.92-4.27-4.27 0-2.36 1.92-4.28 4.27-4.28s4.26 1.91 4.27 4.27v.01.01c-.01 2.35-1.92 4.26-4.27 4.26zm33.41 0c-2.35 0-4.27-1.92-4.27-4.27 0-2.36 1.92-4.28 4.27-4.28s4.26 1.91 4.27 4.26v.01.02c-.01 2.35-1.92 4.26-4.27 4.26zm10.01-6.11-1.08 1.08h-3.21c-.37-2.83-2.79-5.03-5.72-5.03s-5.34 2.19-5.72 5.03h-21.98c-.37-2.83-2.79-5.03-5.72-5.03s-5.34 2.19-5.72 5.03h-.74c-.82-.83-1.45-1.45-2.14-2.14l-1.13-1.13v-6.86l35.75.01c.31 0 .58-.19.7-.48.11-.29.04-.61-.19-.82l-8.03-7.47c-.14-.13-.32-.2-.51-.2h-6.31v-2.28h8.59l10.69 9.96c.14.13.32.2.51.2h8.22l-.33 3.4c-.06.62.14 1.23.56 1.69s1.01.72 1.63.72h4.05v2.13c-.83.85-1.46 1.48-2.17 2.19z"/><path d="m55.27 60.42c-1.41 0-2.55 1.15-2.55 2.55 0 1.41 1.14 2.55 2.55 2.55s2.55-1.14 2.55-2.55c0-1.4-1.15-2.55-2.55-2.55zm0 3.6c-.58 0-1.05-.47-1.05-1.05s.47-1.05 1.05-1.05 1.05.47 1.05 1.05-.47 1.05-1.05 1.05z"/><path d="m21.86 60.42c-1.41 0-2.55 1.15-2.55 2.55 0 1.41 1.14 2.55 2.55 2.55s2.55-1.14 2.55-2.55c0-1.4-1.15-2.55-2.55-2.55zm0 3.6c-.58 0-1.05-.47-1.05-1.05s.47-1.05 1.05-1.05 1.05.47 1.05 1.05-.47 1.05-1.05 1.05z"/><path d="m35.79 53.88h-1.62c-.41 0-.75.34-.75.75s.34.75.75.75h1.62c.41 0 .75-.34.75-.75s-.34-.75-.75-.75z"/><path d="m58.94 32.91c.19 0 .38-.07.53-.22.29-.29.29-.77 0-1.06-1.39-1.39-3.23-2.15-5.19-2.16 0 0 0 0-.01 0-1.96 0-3.79.76-5.18 2.14-.29.29-.29.77 0 1.06s.77.29 1.06 0c1.1-1.1 2.56-1.71 4.12-1.71 1.56 0 3.03.61 4.13 1.72.15.15.34.23.54.23z"/><path d="m61.7 30.15c.19 0 .38-.07.53-.22.29-.29.29-.77 0-1.06-4.38-4.38-11.51-4.39-15.89-.02-.29.29-.29.77 0 1.06s.77.29 1.06 0c3.79-3.79 9.97-3.78 13.77.02.14.15.33.22.53.22z"/><path d="m44.64 27.16c2.57-2.57 5.99-3.99 9.62-3.99h.01c3.64 0 7.07 1.43 9.65 4.01.15.15.34.22.53.22s.38-.07.53-.22c.29-.29.29-.77 0-1.06-2.86-2.86-6.67-4.44-10.71-4.45h-.01c-4.04 0-7.83 1.57-10.68 4.42-.29.29-.29.77 0 1.06s.77.3 1.06.01z"/><path d="m50.84 36.84c0 1.88 1.56 3.41 3.47 3.41 1.88 0 3.41-1.53 3.41-3.41 0-1.94-1.5-3.47-3.41-3.47s-3.47 1.56-3.47 3.47zm5.37 0c0 1.05-.86 1.91-1.91 1.91-1.08 0-1.97-.86-1.97-1.91 0-1.08.88-1.97 1.97-1.97 1.07 0 1.91.86 1.91 1.97z"/></g><g><path d="m12.44 30.3c.15.17.36.26.57.26.17 0 .34-.06.49-.18.32-.27.35-.74.09-1.06l-.34-.4h2.64c.41 0 .75-.34.75-.75s-.34-.75-.75-.75h-2.65l.34-.4c.27-.32.23-.79-.09-1.06s-.79-.23-1.06.09l-1.39 1.64c-.24.28-.24.69 0 .97z"/><path d="m22.7 28.92h2.64l-.34.4c-.27.32-.23.79.09 1.06.14.12.31.18.49.18.21 0 .42-.09.57-.26l1.39-1.64c.24-.28.24-.69 0-.97l-1.39-1.64c-.27-.32-.74-.35-1.06-.09s-.35.74-.09 1.06l.34.4h-2.64c-.41 0-.75.34-.75.75s.34.75.75.75z"/><path d="m18.14 22.46.4-.34v2.64c0 .41.34.75.75.75s.75-.34.75-.75v-2.65l.4.34c.32.27.79.23 1.06-.09s.23-.79-.09-1.06l-1.64-1.39c-.28-.24-.69-.24-.97 0l-1.64 1.39c-.17.15-.26.36-.26.57 0 .17.06.34.18.49.27.33.74.37 1.06.1z"/><path d="m18.81 36.42c.28.24.69.24.97 0l1.64-1.39c.32-.27.35-.74.09-1.06s-.74-.35-1.06-.09l-.4.34v-2.65c0-.41-.34-.75-.75-.75s-.75.34-.75.75v2.64l-.4-.34c-.32-.27-.79-.23-1.06.09-.12.14-.18.31-.18.49 0 .21.09.42.26.57z"/></g></g>
</svg>