<svg xmlns="http://www.w3.org/2000/svg" width="39.638" height="38" viewBox="0 0 39.638 38">
  <g id="car-location" transform="translate(-3.52 -4)">
    <circle id="Ellipse_8" data-name="Ellipse 8" cx="0.706" cy="0.706" r="0.706" transform="translate(16.732 8.66)" fill="#d63d4a"/>
    <path id="Path_168" data-name="Path 168" d="M13.424,56.273v.636a1.083,1.083,0,0,1-1.083,1.083H8.563A1.083,1.083,0,0,1,7.48,56.909v-.878" transform="translate(-1.005 -16.992)" fill="none" stroke="#d63d4a" stroke-linecap="round" stroke-linejoin="round" stroke-width="2"/>
    <path id="Path_169" data-name="Path 169" d="M9.117,34.642,9.139,32H6.059A1.54,1.54,0,0,0,4.52,33.539V35.3H7.8S5.815,38.17,5.815,39.264v7.4A1.189,1.189,0,0,0,7,47.849H16.77" transform="translate(0 -8.83)" fill="none" stroke="#d63d4a" stroke-linecap="round" stroke-linejoin="round" stroke-width="2"/>
    <g id="Path_170" data-name="Path 170" transform="translate(-2.538 -13.245)" fill="none" stroke-linecap="round" stroke-linejoin="round">
      <path d="M11.993,45,14.3,47.642H20.24V45Z" stroke="none"/>
      <path d="M 11.99299621582031 44.99999618530273 L 14.30233573913574 47.64150619506836 L 20.23979568481445 47.64150619506836 L 20.23979568481445 44.99999618530273 L 11.99299621582031 44.99999618530273 M 11.99299621582031 42.99999618530273 L 20.23979568481445 42.99999618530273 C 21.3443660736084 42.99999618530273 22.23979568481445 43.89542388916016 22.23979568481445 44.99999618530273 L 22.23979568481445 47.64150619506836 C 22.23979568481445 48.74607467651367 21.3443660736084 49.64150619506836 20.23979568481445 49.64150619506836 L 14.30233573913574 49.64150619506836 C 13.72531509399414 49.64150619506836 13.17640686035156 49.39228439331055 12.7966251373291 48.9578742980957 L 10.48728561401367 46.31636428833008 C 9.970876693725586 45.72567367553711 9.847545623779297 44.8875846862793 10.17190551757812 44.17317581176758 C 10.49626541137695 43.45876312255859 11.20839500427246 42.99999618530273 11.99299621582031 42.99999618530273 Z" stroke="none" fill="#d63d4a"/>
    </g>
    <line id="Line_54" data-name="Line 54" x2="2.31" y2="2.642" transform="translate(12.093 31.755)" fill="#ffce56" stroke="#d63d4a" stroke-linejoin="round" stroke-width="2"/>
    <g id="Rectangle_63" data-name="Rectangle 63" transform="translate(19.683 31.755)" fill="none" stroke="#d63d4a" stroke-linecap="round" stroke-linejoin="round" stroke-width="2">
      <rect width="3.302" height="3.962" stroke="none"/>
      <rect x="-1" y="-1" width="5.302" height="5.962" fill="none"/>
    </g>
    <path id="Path_171" data-name="Path 171" d="M24.805,22H14.771a2.307,2.307,0,0,0-2.255,1.823l-1.59,7.422L9.867,36a.973.973,0,0,0,.95,1.184H24.793" transform="translate(-1.808 -5.434)" fill="none" stroke="#d63d4a" stroke-linecap="round" stroke-linejoin="round" stroke-width="2"/>
    <path id="Path_172" data-name="Path 172" d="M29.424,56.642H23.481V54h5.943" transform="translate(-6.44 -16.302)" fill="none" stroke="#d63d4a" stroke-linecap="round" stroke-linejoin="round" stroke-width="2"/>
    <path id="Path_173" data-name="Path 173" d="M26.38,30.943h-11.9L15.8,25H26.38" transform="translate(-3.383 -6.453)" fill="none" stroke="#d63d4a" stroke-linecap="round" stroke-linejoin="round" stroke-width="2"/>
    <line id="Line_55" data-name="Line 55" y2="0.934" transform="translate(7.796 8.947)" fill="none" stroke="#d63d4a" stroke-linecap="round" stroke-linejoin="round" stroke-width="2"/>
    <line id="Line_56" data-name="Line 56" y2="0.934" transform="translate(7.796 12.684)" fill="none" stroke="#d63d4a" stroke-linecap="round" stroke-linejoin="round" stroke-width="2"/>
    <line id="Line_57" data-name="Line 57" x2="0.934" transform="translate(5.46 11.283)" fill="none" stroke="#d63d4a" stroke-linecap="round" stroke-linejoin="round" stroke-width="2"/>
    <line id="Line_58" data-name="Line 58" x2="0.934" transform="translate(9.197 11.283)" fill="none" stroke="#d63d4a" stroke-linecap="round" stroke-linejoin="round" stroke-width="2"/>
    <g id="Path_174" data-name="Path 174" transform="translate(-11.031)" fill="none" stroke-linecap="round" stroke-linejoin="round">
      <path d="M39.089,6H50.1a2.089,2.089,0,0,1,2.089,2.089V30.326A2.089,2.089,0,0,1,50.1,32.415H39.089A2.089,2.089,0,0,1,37,30.326V8.089A2.089,2.089,0,0,1,39.089,6Z" stroke="none"/>
      <path d="M 39.08876800537109 6 C 37.93517684936523 6 36.99999618530273 6.935178756713867 36.99999618530273 8.088768005371094 L 36.99999618530273 30.32631683349609 C 36.99999618530273 31.47991752624512 37.93517684936523 32.41510009765625 39.08876800537109 32.41510009765625 L 50.09983825683594 32.41508865356445 C 51.25347900390625 32.41508865356445 52.18867874145508 31.47988891601562 52.18867874145508 30.32625770568848 L 52.18867874145508 8.088768005371094 C 52.18867874145508 6.935178756713867 51.25349807739258 6 50.09990692138672 6 L 39.08876800537109 6 M 39.08876800537109 4 L 50.09990692138672 4 C 52.35446929931641 4 54.18867874145508 5.834209442138672 54.18867874145508 8.088768005371094 L 54.18867874145508 30.32625770568848 C 54.18867874145508 32.58084869384766 52.35442733764648 34.41508865356445 50.09983825683594 34.41508865356445 L 39.08876800537109 34.41510009765625 C 36.83420562744141 34.41510009765625 34.99999618530273 32.58087921142578 34.99999618530273 30.32631683349609 L 34.99999618530273 8.088768005371094 C 34.99999618530273 5.834209442138672 36.83420562744141 4 39.08876800537109 4 Z" stroke="none" fill="#d63d4a"/>
    </g>
    <line id="Line_59" data-name="Line 59" x2="2.642" transform="translate(32.573 30.434)" fill="none" stroke="#d63d4a" stroke-linecap="round" stroke-linejoin="round" stroke-width="2"/>
    <g id="Path_175" data-name="Path 175" transform="translate(-12.729 -2.038)" fill="none" stroke-linecap="round" stroke-linejoin="round">
      <path d="M46.292,12A4.232,4.232,0,0,0,42,16.17c0,3.208,3.3,7.057,4.292,7.057s4.292-3.849,4.292-7.057A4.232,4.232,0,0,0,46.292,12Zm0,5.943a1.651,1.651,0,1,1,1.651-1.651,1.651,1.651,0,0,1-1.651,1.651Z" stroke="none"/>
      <path d="M 46.23080444335938 11.99933242797852 C 43.92209625244141 11.99925994873047 42.0340576171875 13.85355758666992 42 16.16959190368652 C 42 19.37711334228516 45.3018913269043 23.22619247436523 46.29244995117188 23.22619247436523 C 47.28302001953125 23.22619247436523 50.58489990234375 19.37711334228516 50.58489990234375 16.16959190368652 C 50.550537109375 13.8330249786377 48.62913513183594 11.96653366088867 46.29244995117188 11.99977111816406 C 46.27191162109375 11.99947929382324 46.25127410888672 11.99933242797852 46.23080444335938 11.99933242797852 M 46.29244995117188 17.94317245483398 C 45.38066101074219 17.94317245483398 44.64151000976562 17.20402145385742 44.64151000976562 16.29223251342773 C 44.64151000976562 15.38043212890625 45.38066101074219 14.64128112792969 46.29244995117188 14.64128112792969 C 47.20423889160156 14.64128112792969 47.94338989257812 15.38043212890625 47.94338989257812 16.29223251342773 C 47.94338989257812 17.20402145385742 47.20423889160156 17.94317245483398 46.29244995117188 17.94317245483398 M 46.23067092895508 9.999332427978516 L 46.23080062866211 9.999332427978516 C 46.27172088623047 9.999334335327148 46.31279373168945 9.999334335327148 46.35409927368164 9.999332427978516 C 47.99972915649414 9.999332427978516 49.55221939086914 10.63557243347168 50.72560119628906 11.79084205627441 C 51.90021133422852 12.94733238220215 52.56044006347656 14.49195289611816 52.58467864990234 16.14018249511719 C 52.58483123779297 16.14998245239258 52.58489990234375 16.15979194641113 52.58489990234375 16.16959190368652 C 52.58489990234375 18.61476135253906 51.24819946289062 20.89941215515137 50.45140075683594 22.04363250732422 C 49.90898132324219 22.82255172729492 49.31430053710938 23.51626205444336 48.73163986206055 24.04974174499512 C 47.85503005981445 24.85237121582031 47.07995986938477 25.22619247436523 46.29244995117188 25.22619247436523 C 45.50494003295898 25.22619247436523 44.7298698425293 24.85237121582031 43.8532600402832 24.04974174499512 C 43.27059936523438 23.51625061035156 42.67591857910156 22.82255172729492 42.13349914550781 22.04363250732422 C 41.33670806884766 20.89941215515137 40 18.61476135253906 40 16.16959190368652 C 40 16.15979194641113 40.00006866455078 16.14998245239258 40.00022125244141 16.14018249511719 C 40.02445983886719 14.49196243286133 40.68465805053711 12.94735145568848 41.85921096801758 11.79087257385254 C 43.03255081176758 10.63558197021484 44.58502960205078 9.999332427978516 46.23067092895508 9.999332427978516 Z" stroke="none" fill="#d63d4a"/>
    </g>
    <line id="Line_60" data-name="Line 60" x2="15.189" transform="translate(25.969 28.453)" fill="none" stroke="#d63d4a" stroke-linejoin="round" stroke-width="2"/>
  </g>
</svg>
