<svg id="unlock_icon-icons.com_56877" xmlns="http://www.w3.org/2000/svg" width="20.578" height="20.578" viewBox="0 0 20.578 20.578">
  <path id="Path_79" data-name="Path 79" d="M18.007,9H10.29V5.145A5.145,5.145,0,1,0,0,5.145V9H2.573V5.145a2.572,2.572,0,1,1,5.145,0V9a2.572,2.572,0,0,0-2.572,2.572v6.431a2.572,2.572,0,0,0,2.572,2.572H18.007a2.572,2.572,0,0,0,2.572-2.572V11.575A2.572,2.572,0,0,0,18.007,9Zm-4.5,6.233v2.126a.643.643,0,1,1-1.286,0V15.236a1.268,1.268,0,0,1-.643-1.089,1.286,1.286,0,1,1,2.572,0A1.268,1.268,0,0,1,13.506,15.236Z" transform="translate(-0.001 0)" fill="#d63d4a"/>
</svg>